<?xml version="1.0" encoding="utf-8"?>
<!-- Generator: Adobe Illustrator 26.0.0, SVG Export Plug-In . SVG Version: 6.00 Build 0)  -->
<svg version="1.1" xmlns="http://www.w3.org/2000/svg" xmlns:xlink="http://www.w3.org/1999/xlink" x="0px" y="0px"
	 viewBox="0 0 2500 2500" style="enable-background:new 0 0 2500 2500;" xml:space="preserve">
<style type="text/css">
	.st0{display:none;}
	.st1{fill:#FFFFFF;}
</style>
<g id="Background" class="st0">
</g>
<g id="Illustration">
	<g id="Workplace_culture_00000087402295342760817060000009376739944211406223_">
		<g>
			<g>
				<g>
					<path class="st1" d="M-1264.97-343.79l6.51,23.03l26.1-1.4c2.46,5.06,5.3,9.86,8.51,14.34l-13.64,22.26l17.16,16.69
						l21.91-14.27c4.61,3.11,9.47,5.83,14.54,8.13l-0.69,26.14l23.2,5.88l11.82-23.28c5.5,0.38,11.07,0.3,16.67-0.26l12.47,22.97
						l23.03-6.51l-1.4-26.1c5.06-2.46,9.86-5.31,14.34-8.51l22.26,13.64l16.69-17.16l-14.27-21.91c3.11-4.61,5.83-9.47,8.13-14.54
						l26.14,0.69l5.88-23.2l-23.28-11.82c0.39-5.5,0.3-11.07-0.26-16.67l22.97-12.47l-6.51-23.03l-26.1,1.4
						c-2.46-5.06-5.3-9.86-8.51-14.34l13.64-22.26l-17.16-16.69l-21.91,14.27c-4.61-3.11-9.47-5.83-14.54-8.13l0.69-26.14
						l-23.2-5.88l-11.82,23.28c-5.5-0.39-11.07-0.3-16.67,0.26l-12.47-22.97l-23.03,6.51l1.4,26.1c-5.06,2.46-9.86,5.3-14.34,8.51
						l-22.26-13.64l-16.69,17.16l14.27,21.91c-3.11,4.61-5.83,9.47-8.13,14.54l-26.14-0.69l-5.88,23.2l23.28,11.82
						c-0.39,5.5-0.3,11.07,0.26,16.67L-1264.97-343.79z M-1159.32-425.25c32.75-9.26,66.8,9.78,76.05,42.53
						c9.26,32.75-9.78,66.8-42.53,76.05c-32.75,9.26-66.8-9.78-76.05-42.53C-1211.11-381.94-1192.07-415.99-1159.32-425.25z"/>
					<path d="M-1161.36-240.76c-0.18,0-0.36-0.02-0.55-0.07l-23.2-5.88c-1.01-0.26-1.71-1.18-1.68-2.22l0.65-24.68
						c-4.24-2-8.36-4.31-12.28-6.87l-20.69,13.47c-0.88,0.57-2.02,0.46-2.77-0.27l-17.16-16.69c-0.75-0.73-0.89-1.87-0.35-2.76
						l12.88-21.01c-2.64-3.82-5.05-7.88-7.19-12.12l-24.64,1.32c-1.02,0.05-1.98-0.62-2.26-1.62l-6.51-23.03
						c-0.28-1,0.17-2.07,1.08-2.56l21.69-11.77c-0.4-4.73-0.47-9.46-0.22-14.09l-21.97-11.16c-0.93-0.47-1.41-1.52-1.15-2.53
						l5.88-23.2c0.26-1.01,1.25-1.7,2.22-1.68l24.68,0.65c2-4.24,4.31-8.36,6.87-12.28l-13.47-20.68c-0.57-0.87-0.46-2.02,0.27-2.77
						l16.69-17.16c0.73-0.75,1.87-0.89,2.76-0.35l21.01,12.88c3.81-2.64,7.88-5.05,12.12-7.19l-1.32-24.64
						c-0.06-1.04,0.62-1.98,1.62-2.26l23.03-6.51c1-0.28,2.07,0.17,2.56,1.08l11.77,21.69c4.73-0.4,9.46-0.47,14.09-0.22
						l11.16-21.97c0.47-0.93,1.52-1.41,2.53-1.15l23.2,5.88c1.01,0.26,1.71,1.18,1.68,2.22l-0.65,24.68c4.24,2,8.36,4.31,12.28,6.87
						l20.69-13.47c0.88-0.57,2.02-0.46,2.77,0.27l17.16,16.69c0.75,0.73,0.89,1.87,0.35,2.76l-12.88,21.01
						c2.64,3.81,5.05,7.88,7.19,12.12l24.64-1.32c1.02-0.06,1.98,0.62,2.26,1.62l6.51,23.03c0.28,1-0.17,2.07-1.08,2.56
						l-21.69,11.77c0.4,4.74,0.47,9.46,0.22,14.09l21.97,11.16c0.93,0.47,1.41,1.52,1.15,2.53l-5.88,23.2
						c-0.26,1.01-1.24,1.7-2.22,1.68l-24.68-0.65c-2,4.24-4.31,8.36-6.87,12.28l13.47,20.69c0.57,0.87,0.46,2.02-0.27,2.77
						l-16.69,17.16c-0.73,0.75-1.87,0.89-2.76,0.35l-21.01-12.88c-3.82,2.64-7.89,5.06-12.12,7.19l1.32,24.64
						c0.06,1.04-0.62,1.98-1.62,2.26l-23.03,6.51c-1,0.28-2.07-0.17-2.56-1.08l-11.77-21.69c-4.73,0.4-9.46,0.47-14.09,0.22
						l-11.16,21.97C-1159.76-241.22-1160.54-240.76-1161.36-240.76z M-1182.29-250.58l19.75,5l11.02-21.69
						c0.41-0.8,1.26-1.28,2.14-1.21c5.34,0.37,10.82,0.29,16.3-0.25c0.88-0.09,1.75,0.37,2.18,1.15l11.62,21.41l19.6-5.54
						l-1.31-24.33c-0.05-0.89,0.44-1.73,1.25-2.12c4.95-2.41,9.67-5.2,14.02-8.32c0.73-0.52,1.7-0.55,2.46-0.09l20.74,12.71
						l14.21-14.6l-13.3-20.42c-0.49-0.75-0.48-1.72,0.02-2.46c3.03-4.5,5.71-9.28,7.95-14.21c0.37-0.81,1.21-1.33,2.09-1.3
						l24.36,0.64l5-19.75l-21.69-11.02c-0.8-0.41-1.28-1.25-1.21-2.14c0.37-5.33,0.29-10.81-0.25-16.3
						c-0.09-0.89,0.37-1.75,1.15-2.18l21.41-11.62l-5.54-19.61l-24.33,1.31c-0.9,0.04-1.73-0.44-2.12-1.25
						c-2.41-4.95-5.21-9.67-8.32-14.02c-0.52-0.73-0.55-1.7-0.09-2.46l12.71-20.74l-14.6-14.21l-20.42,13.3
						c-0.75,0.49-1.72,0.48-2.46-0.02c-4.5-3.03-9.28-5.7-14.22-7.95c-0.81-0.37-1.33-1.19-1.3-2.09l0.64-24.36l-19.75-5
						l-11.02,21.69c-0.41,0.8-1.25,1.27-2.14,1.21c-5.33-0.37-10.82-0.29-16.3,0.25c-0.89,0.09-1.75-0.37-2.18-1.15l-11.62-21.41
						l-19.61,5.54l1.31,24.33c0.05,0.89-0.44,1.73-1.25,2.12c-4.96,2.41-9.67,5.21-14.02,8.32c-0.73,0.52-1.7,0.56-2.46,0.09
						l-20.74-12.71l-14.21,14.6l13.3,20.42c0.49,0.75,0.48,1.72-0.02,2.46c-3.03,4.5-5.7,9.28-7.95,14.21
						c-0.37,0.81-1.19,1.32-2.09,1.3l-24.36-0.64l-5,19.75l21.69,11.02c0.8,0.41,1.28,1.25,1.21,2.14
						c-0.37,5.34-0.29,10.82,0.25,16.3c0.09,0.89-0.37,1.75-1.15,2.18l-21.41,11.62l5.54,19.61l24.33-1.31
						c0.9-0.05,1.73,0.44,2.12,1.25c2.41,4.95,5.21,9.67,8.32,14.02c0.52,0.73,0.55,1.7,0.09,2.46l-12.71,20.74l14.6,14.21
						l20.42-13.3c0.75-0.49,1.72-0.48,2.46,0.02c4.49,3.03,9.28,5.7,14.22,7.95c0.81,0.37,1.33,1.19,1.3,2.09L-1182.29-250.58z
						 M-1142.66-302.08c-10.77,0-21.41-2.75-31.07-8.15c-14.88-8.32-25.64-21.94-30.27-38.35c-4.64-16.41-2.61-33.64,5.71-48.53
						c8.32-14.88,21.94-25.64,38.35-30.27c16.41-4.64,33.64-2.61,48.53,5.71c14.88,8.32,25.64,21.94,30.28,38.35
						c4.64,16.41,2.61,33.64-5.71,48.53c-8.32,14.88-21.94,25.64-38.36,30.28C-1130.96-302.89-1136.83-302.08-1142.66-302.08z
						 M-1158.72-423.1c-15.27,4.32-27.94,14.32-35.68,28.16c-7.74,13.85-9.63,29.88-5.31,45.14c4.31,15.27,14.32,27.94,28.16,35.68
						c13.85,7.74,29.88,9.63,45.14,5.31c15.27-4.32,27.94-14.32,35.68-28.16c7.74-13.85,9.63-29.88,5.31-45.14
						c-4.32-15.27-14.32-27.94-28.16-35.68C-1127.42-425.53-1143.45-427.42-1158.72-423.1z M-1159.32-425.25h0.02H-1159.32z"/>
				</g>
			</g>
			<g>
				<g>
					<path class="st1" d="M-1645.73-101.51l11.14,39.41l44.67-2.4c4.21,8.66,9.08,16.87,14.56,24.54l-23.35,38.09l29.36,28.56
						l37.5-24.42c7.89,5.32,16.21,9.97,24.88,13.91l-1.17,44.73l39.7,10.06l20.23-39.84c9.41,0.66,18.94,0.51,28.53-0.44
						l21.34,39.31l39.41-11.14l-2.4-44.67c8.66-4.21,16.87-9.08,24.54-14.56l38.09,23.35l28.56-29.36l-24.42-37.5
						c5.32-7.89,9.97-16.21,13.91-24.87l44.73,1.17l10.06-39.7l-39.84-20.23c0.66-9.41,0.51-18.94-0.44-28.53l39.31-21.34
						l-11.14-39.41l-44.67,2.4c-4.21-8.66-9.08-16.87-14.56-24.54l23.35-38.09l-29.36-28.56l-37.5,24.42
						c-7.89-5.32-16.21-9.97-24.87-13.91l1.17-44.73l-39.7-10.06l-20.23,39.84c-9.41-0.66-18.94-0.51-28.53,0.44l-21.34-39.31
						l-39.41,11.14l2.4,44.67c-8.66,4.21-16.87,9.08-24.54,14.56l-38.09-23.35l-28.56,29.36l24.42,37.49
						c-5.32,7.89-9.97,16.21-13.91,24.88l-44.73-1.17l-10.06,39.7l39.84,20.23c-0.66,9.41-0.51,18.94,0.44,28.53L-1645.73-101.51z
						 M-1464.95-240.9c56.03-15.84,114.3,16.74,130.14,72.78c15.84,56.03-16.74,114.3-72.78,130.14
						c-56.03,15.84-114.3-16.74-130.14-72.78C-1553.57-166.79-1520.99-225.06-1464.95-240.9z"/>
					<path d="M-1468.44,73.21c-0.18,0-0.36-0.02-0.55-0.07l-39.7-10.06c-1.01-0.26-1.71-1.18-1.68-2.22l1.13-43.26
						c-7.83-3.64-15.42-7.89-22.63-12.65l-36.26,23.62c-0.88,0.57-2.02,0.46-2.77-0.27l-29.36-28.56c-0.75-0.73-0.89-1.87-0.35-2.76
						l22.58-36.84c-4.9-6.99-9.35-14.49-13.25-22.33l-43.2,2.32c-1.03,0.06-1.98-0.62-2.26-1.62l-11.14-39.41
						c-0.28-1,0.17-2.07,1.08-2.56l38.02-20.64c-0.79-8.72-0.92-17.44-0.4-25.96l-38.53-19.57c-0.93-0.47-1.41-1.52-1.15-2.53
						l10.06-39.7c0.25-1.01,1.14-1.72,2.22-1.68l43.26,1.13c3.64-7.83,7.89-15.43,12.65-22.63l-23.62-36.26
						c-0.57-0.87-0.46-2.02,0.27-2.77l28.56-29.36c0.73-0.75,1.87-0.89,2.76-0.35l36.84,22.58c6.98-4.9,14.48-9.35,22.33-13.25
						l-2.32-43.2c-0.06-1.04,0.62-1.98,1.62-2.26l39.41-11.14c1-0.28,2.07,0.17,2.56,1.08l20.64,38.02
						c8.72-0.79,17.44-0.92,25.96-0.4l19.57-38.53c0.47-0.93,1.52-1.41,2.53-1.15l39.7,10.06c1.01,0.26,1.71,1.18,1.68,2.22
						l-1.13,43.26c7.83,3.64,15.43,7.89,22.62,12.65l36.26-23.62c0.88-0.57,2.02-0.46,2.77,0.27l29.36,28.56
						c0.75,0.73,0.89,1.87,0.35,2.76l-22.58,36.84c4.9,6.98,9.35,14.48,13.25,22.33l43.2-2.32c1.03-0.06,1.98,0.62,2.26,1.62
						l11.14,39.41c0.28,1-0.17,2.07-1.08,2.56l-38.02,20.64c0.79,8.72,0.92,17.44,0.4,25.96l38.52,19.57
						c0.93,0.47,1.41,1.52,1.15,2.53l-10.06,39.7c-0.26,1.01-1.2,1.72-2.22,1.68l-43.26-1.13c-3.64,7.82-7.89,15.42-12.65,22.63
						l23.62,36.26c0.57,0.87,0.46,2.02-0.27,2.77l-28.56,29.36c-0.73,0.75-1.87,0.89-2.76,0.35l-36.84-22.58
						c-6.99,4.91-14.49,9.35-22.33,13.25l2.32,43.2c0.06,1.04-0.62,1.98-1.62,2.26l-39.41,11.14c-1,0.28-2.07-0.17-2.56-1.08
						l-20.64-38.02c-8.72,0.79-17.44,0.92-25.96,0.4l-19.57,38.53C-1466.84,72.75-1467.62,73.21-1468.44,73.21z M-1505.87,59.2
						l36.25,9.18l19.43-38.25c0.41-0.8,1.26-1.27,2.14-1.21c9.22,0.65,18.7,0.5,28.16-0.44c0.88-0.09,1.75,0.37,2.18,1.15
						l20.49,37.75l35.99-10.17l-2.3-42.89c-0.05-0.89,0.44-1.73,1.25-2.12c8.55-4.16,16.7-8.99,24.22-14.37
						c0.73-0.52,1.7-0.55,2.46-0.09l36.58,22.42l26.08-26.8l-23.45-36c-0.49-0.75-0.48-1.72,0.02-2.46
						c5.24-7.77,9.86-16.03,13.73-24.55c0.37-0.81,1.2-1.33,2.09-1.3l42.95,1.13l9.18-36.25l-38.25-19.43
						c-0.8-0.41-1.28-1.25-1.21-2.14c0.65-9.22,0.5-18.69-0.43-28.16c-0.09-0.89,0.37-1.75,1.15-2.18l37.75-20.49l-10.17-35.99
						l-42.89,2.3c-0.9,0.05-1.73-0.44-2.12-1.25c-4.16-8.56-9-16.71-14.37-24.22c-0.52-0.73-0.55-1.7-0.09-2.46l22.42-36.58
						l-26.8-26.08l-36,23.45c-0.75,0.49-1.72,0.48-2.46-0.02c-7.77-5.23-16.03-9.85-24.55-13.73c-0.81-0.37-1.33-1.19-1.3-2.09
						l1.13-42.95l-36.25-9.18l-19.43,38.25c-0.4,0.8-1.24,1.28-2.14,1.21c-9.21-0.65-18.69-0.5-28.16,0.43
						c-0.88,0.09-1.75-0.37-2.18-1.15l-20.5-37.75l-35.99,10.17l2.3,42.89c0.05,0.89-0.44,1.73-1.25,2.12
						c-8.56,4.16-16.71,9-24.22,14.37c-0.73,0.52-1.7,0.56-2.46,0.09l-36.58-22.42l-26.08,26.8l23.45,36
						c0.49,0.75,0.48,1.72-0.02,2.46c-5.23,7.76-9.85,16.02-13.73,24.55c-0.37,0.81-1.17,1.33-2.09,1.3l-42.95-1.13l-9.18,36.25
						l38.25,19.43c0.8,0.41,1.28,1.25,1.21,2.14c-0.65,9.21-0.5,18.69,0.43,28.16c0.09,0.89-0.37,1.75-1.15,2.18l-37.75,20.49
						l10.17,35.99l42.89-2.3c0.92-0.05,1.73,0.45,2.12,1.25c4.16,8.55,8.99,16.7,14.37,24.22c0.52,0.73,0.55,1.7,0.09,2.46
						l-22.42,36.58l26.8,26.08l36-23.45c0.75-0.49,1.72-0.48,2.46,0.02c7.77,5.23,16.03,9.85,24.55,13.73
						c0.81,0.37,1.33,1.19,1.3,2.09L-1505.87,59.2z M-1436.23-31.77c-46.97,0-90.25-31.01-103.64-78.39
						c-16.15-57.13,17.19-116.74,74.31-132.89l0.61,2.14l-0.61-2.14c27.67-7.82,56.74-4.4,81.84,9.63
						c25.1,14.04,43.23,37.01,51.06,64.68c7.82,27.67,4.4,56.74-9.63,81.84c-14.04,25.1-37.01,43.23-64.68,51.06
						C-1416.73-33.08-1426.56-31.77-1436.23-31.77z M-1436.11-242.7c-9.43,0-18.91,1.3-28.23,3.94
						c-54.76,15.48-86.72,72.63-71.24,127.4c15.48,54.76,72.63,86.72,127.4,71.24c26.53-7.5,48.55-24.88,62-48.94
						c13.45-24.06,16.73-51.92,9.23-78.45c-7.5-26.53-24.88-48.55-48.94-62C-1401.5-238.25-1418.71-242.7-1436.11-242.7z"/>
				</g>
			</g>
		</g>
		<g>
			<g>
				<g>
					<g>
						<path class="st1" d="M-152.75-534.09h-460.72c-17.98,0-32.55,14.57-32.55,32.55V6.79c0,17.98,14.57,32.55,32.55,32.55h460.72
							c17.98,0,32.55-14.57,32.55-32.55v-508.32C-120.2-519.52-134.77-534.09-152.75-534.09z"/>
						<path d="M-152.75,41.56h-460.72c-19.18,0-34.78-15.6-34.78-34.78v-508.32c0-19.18,15.6-34.78,34.78-34.78h460.72
							c19.18,0,34.78,15.6,34.78,34.78V6.78C-117.97,25.96-133.57,41.56-152.75,41.56z M-613.47-531.86
							c-16.72,0-30.32,13.6-30.32,30.32V6.78c0,16.72,13.6,30.32,30.32,30.32h460.72c16.72,0,30.32-13.6,30.32-30.32v-508.32
							c0-16.72-13.6-30.32-30.32-30.32H-613.47z"/>
					</g>
					<g>
						<path d="M-145.66-478.45h-474.49c-1.23,0-2.23-1-2.23-2.23c0-1.23,1-2.23,2.23-2.23h474.49c1.23,0,2.23,1,2.23,2.23
							C-143.43-479.44-144.43-478.45-145.66-478.45z"/>
						<g>
							<circle cx="-611.8" cy="-509.05" r="8.35"/>
							<circle cx="-578.42" cy="-509.05" r="8.35"/>
							<circle cx="-545.03" cy="-509.05" r="8.35"/>
						</g>
						<path d="M-145.66-506.82h-47.02c-1.23,0-2.23-1-2.23-2.23c0-1.23,1-2.23,2.23-2.23h47.02c1.23,0,2.23,1,2.23,2.23
							C-143.43-507.82-144.43-506.82-145.66-506.82z"/>
						<path d="M-213.82-506.82h-194.75c-1.23,0-2.23-1-2.23-2.23c0-1.23,1-2.23,2.23-2.23h194.75c1.23,0,2.23,1,2.23,2.23
							C-211.59-507.82-212.59-506.82-213.82-506.82z"/>
						<path d="M-459.76-506.82h-41.45c-1.23,0-2.23-1-2.23-2.23c0-1.23,1-2.23,2.23-2.23h41.45c1.23,0,2.23,1,2.23,2.23
							C-457.53-507.82-458.53-506.82-459.76-506.82z"/>
					</g>
				</g>
				<g>
					<g>
						<g>
							<path class="st1" d="M-462.89-262.11c15.17-26.54,43.4-45.29,76.2-48.68l2.28-129.75c-94.22,0.32-177.37,53.4-215.24,131.86
								L-462.89-262.11z"/>
							<path d="M-462.89-259.88c-0.24,0-0.48-0.04-0.72-0.12l-136.76-46.58c-0.6-0.21-1.09-0.66-1.34-1.25
								c-0.25-0.59-0.23-1.25,0.05-1.83c38.88-80.56,124.15-132.81,217.24-133.12c0.66,0.03,1.17,0.24,1.59,0.66
								c0.42,0.43,0.65,1,0.64,1.6l-2.28,129.75c-0.02,1.13-0.88,2.06-2,2.18c-31.48,3.26-59.33,21.04-74.5,47.57
								C-461.36-260.29-462.11-259.88-462.89-259.88z M-596.53-309.97l132.64,45.17c15.74-26.35,43.54-44.13,75.01-47.98l2.2-125.51
								C-476.31-437.17-558.22-387.07-596.53-309.97z"/>
						</g>
						<path d="M-469.33-403.04c-0.88,0-1.71-0.53-2.07-1.39c-0.46-1.14,0.09-2.44,1.23-2.9c21.27-8.61,43.68-13.98,66.61-15.96
							c1.23-0.1,2.3,0.8,2.41,2.03c0.11,1.23-0.8,2.3-2.03,2.41c-22.49,1.95-44.47,7.21-65.33,15.66
							C-468.76-403.1-469.05-403.04-469.33-403.04z"/>
						<path d="M-544.39-353.01c-0.56,0-1.12-0.21-1.56-0.64c-0.88-0.86-0.89-2.27-0.03-3.15c16.05-16.39,34.68-30.21,55.36-41.07
							c1.09-0.57,2.43-0.15,3.01,0.94c0.57,1.09,0.15,2.44-0.94,3.01c-20.27,10.64-38.52,24.18-54.25,40.24
							C-543.23-353.23-543.81-353.01-544.39-353.01z"/>
						<g>
							<path class="st1" d="M-281.13-204.6c-7.72,42.63-46.56,76.15-94.14,77.63c-14.19,0.44-27.74-2.01-40.04-6.8l-74.27,114.99
								C-455.06-3.2-416.06,4.43-375.27,2.09c118.63-6.81,211.89-96.12,222.25-203.62L-281.13-204.6z"/>
							<path d="M-389.5,4.72c-35.02,0-69.66-7.34-100.99-21.48c-0.59-0.27-1.04-0.78-1.22-1.4c-0.18-0.62-0.09-1.29,0.27-1.84
								l74.27-114.99c0.57-0.89,1.69-1.25,2.68-0.87c12.41,4.84,25.58,7.07,39.16,6.65c45.62-1.42,84.32-33.3,92.02-75.8
								c0.2-1.08,1.19-1.84,2.24-1.83l128.11,3.07c0.62,0.01,1.2,0.29,1.61,0.75c0.41,0.46,0.61,1.08,0.55,1.69
								C-161.44-90.83-257.89-2.43-375.14,4.31C-379.93,4.58-384.72,4.72-389.5,4.72z M-486.29-19.77
								c34.35,15.04,72.64,21.83,110.9,19.63c114.23-6.56,208.34-92.01,219.92-199.23l-123.82-2.97
								c-8.86,43.62-48.87,76.12-95.9,77.58c-13.57,0.42-26.75-1.7-39.22-6.31L-486.29-19.77z"/>
						</g>
						<path d="M-389.74-13.88c-25.03,0-49.46-3.96-72.61-11.78c-1.17-0.39-1.79-1.66-1.4-2.82c0.39-1.17,1.65-1.79,2.82-1.4
							c22.69,7.66,46.64,11.54,71.18,11.54c4.41,0,8.88-0.13,13.27-0.38c1.22-0.08,2.28,0.87,2.35,2.09
							c0.07,1.23-0.87,2.28-2.1,2.35C-380.69-14.01-385.24-13.88-389.74-13.88z"/>
						<path d="M-329.44-21.91c-0.98,0-1.88-0.65-2.15-1.64c-0.32-1.19,0.38-2.41,1.56-2.73c77.93-21.25,138.11-83.11,153.32-157.6
							c0.25-1.21,1.42-1.98,2.63-1.74c1.2,0.25,1.98,1.42,1.74,2.63c-15.55,76.12-76.98,139.32-156.51,161.01
							C-329.04-21.93-329.24-21.91-329.44-21.91z"/>
						<g>
							<path class="st1" d="M-512.82-30.88l74.95-115.33c-22.42-16.6-36.83-42.43-36.83-71.73c0-7.08,0.85-13.98,2.45-20.62
								l-137.28-46.02c-7.37,21.61-11.35,44.61-11.35,68.44C-620.89-137.25-577.6-69.33-512.82-30.88z"/>
							<path d="M-512.83-28.66c-0.39,0-0.78-0.1-1.13-0.31c-68.35-40.57-109.16-110.54-109.16-187.18
								c0-23.57,3.86-46.84,11.47-69.16c0.39-1.16,1.65-1.78,2.82-1.39l137.28,46.02c1.1,0.37,1.73,1.51,1.46,2.63
								c-1.58,6.58-2.39,13.34-2.39,20.1c0,27.54,13.09,53.03,35.93,69.94c0.95,0.7,1.18,2.02,0.54,3l-74.95,115.33
								C-511.38-29.02-512.09-28.66-512.83-28.66z M-608.13-281.76c-6.99,21.21-10.53,43.28-10.53,65.62
								c0,74.36,39.26,142.33,105.14,182.25l72.65-111.79c-22.94-17.75-36.06-43.96-36.06-72.25c0-6.43,0.69-12.86,2.05-19.15
								L-608.13-281.76z"/>
						</g>
					</g>
					<g>
						<g>
							<path class="st1" d="M-344.12-315.7c43.33,6.45,76.64,40.02,80.6,81.52l209.49,6.07c0-0.09,0-0.18,0-0.27
								c0-153.68-122.45-285.21-286.34-302.14L-344.12-315.7z"/>
							<path d="M-54.05-225.88c-0.01,0-0.03,0-0.04,0l-209.49-6.07c-1.12-0.03-2.05-0.9-2.15-2.01
								c-3.86-40.5-36.23-73.21-78.71-79.53c-1.11-0.16-1.92-1.12-1.9-2.24l3.75-214.81c0.01-0.62,0.28-1.21,0.75-1.63
								c0.47-0.41,1.08-0.61,1.71-0.55c79.52,8.21,152.69,43.9,206.02,100.47c53.08,56.31,82.32,128.72,82.32,203.88
								c0,0.6-0.24,1.31-0.68,1.73C-52.9-226.23-53.47-225.88-54.05-225.88z M-261.52-236.35l205.25,5.95
								c-1.06-152.58-121.73-279.95-281.93-297.64l-3.68,210.44C-298.99-310.39-266.34-277.37-261.52-236.35z"/>
						</g>
					</g>
				</g>
			</g>
			<g>
				<g>
					<path class="st1" d="M-579-283.7H-853.2c-13.51,0-24.47,10.95-24.47,24.47v364.32c0,13.51,10.95,24.47,24.47,24.47H-579
						c13.51,0,24.47-10.95,24.47-24.47v-364.32C-554.54-272.75-565.49-283.7-579-283.7z"/>
					<path d="M-579,131.77H-853.2c-14.72,0-26.69-11.97-26.69-26.69v-364.32c0-14.72,11.97-26.69,26.69-26.69H-579
						c14.72,0,26.69,11.97,26.69,26.69v364.32C-552.31,119.8-564.29,131.77-579,131.77z M-853.2-281.48
						c-12.26,0-22.24,9.98-22.24,22.24v364.32c0,12.26,9.98,22.24,22.24,22.24H-579c12.26,0,22.24-9.98,22.24-22.24v-364.32
						c0-12.26-9.98-22.24-22.24-22.24H-853.2z"/>
				</g>
				<g>
					<g>
						<rect x="-839.25" y="-165.6" class="st1" width="70.39" height="231.31"/>
						<path d="M-768.86,67.93h-70.39c-1.23,0-2.23-1-2.23-2.23v-231.31c0-1.23,1-2.23,2.23-2.23h70.39c1.23,0,2.23,1,2.23,2.23V65.7
							C-766.63,66.93-767.63,67.93-768.86,67.93z M-837.02,63.47h65.93v-226.85h-65.93V63.47z"/>
					</g>
					<g>
						<rect x="-751.29" y="-229.44" class="st1" width="70.39" height="295.14"/>
						<path d="M-680.91,67.93h-70.39c-1.23,0-2.23-1-2.23-2.23v-295.14c0-1.23,1-2.23,2.23-2.23h70.39c1.23,0,2.23,1,2.23,2.23V65.7
							C-678.68,66.93-679.68,67.93-680.91,67.93z M-749.07,63.47h65.93v-290.68h-65.93V63.47z"/>
					</g>
					<g>
						<rect x="-663.34" y="-72.2" class="st1" width="70.39" height="137.9"/>
						<path d="M-592.95,67.93h-70.39c-1.23,0-2.23-1-2.23-2.23V-72.2c0-1.23,1-2.23,2.23-2.23h70.39c1.23,0,2.23,1,2.23,2.23V65.7
							C-590.72,66.93-591.72,67.93-592.95,67.93z M-661.11,63.47h65.93V-69.97h-65.93V63.47z"/>
					</g>
				</g>
			</g>
		</g>
		<g>
			<g>
				<g>
					<polygon class="st1" points="-1125.98,960.23 -1119.83,1018.82 -1080.21,1023.47 -1080.21,953.99 					"/>
					<path d="M-1080.21,1025.69c-0.09,0-0.17,0-0.26-0.02l-39.62-4.64c-1.04-0.12-1.85-0.94-1.96-1.98l-6.15-58.6
						c-0.13-1.2,0.72-2.28,1.91-2.44l45.77-6.24c0.65-0.09,1.28,0.11,1.77,0.53c0.48,0.42,0.76,1.03,0.76,1.68v69.48
						c0,0.64-0.27,1.24-0.75,1.66C-1079.14,1025.49-1079.67,1025.69-1080.21,1025.69z M-1117.8,1016.82l35.36,4.15v-64.42l-41.1,5.6
						L-1117.8,1016.82z"/>
				</g>
				<g>
					<path class="st1" d="M-1073.97,1125.47c-16.51,2.32-43.59,4.37-75.37-0.03c-10.42-1.44-17.32-11.55-14.81-21.76
						c7-28.45,19.06-82.41,39.75-107.41l5.14,13.56l7.1-12.77c0.97-1.75,2.72-2.93,4.71-3.18l15.55-1.97
						c3.25-0.41,6.27,1.74,6.94,4.94l2.47,11.77l5.42-15.45l18.09,112.47C-1057.69,1115.25-1064.37,1124.12-1073.97,1125.47z"/>
					<path d="M-1111.43,1130.26c-11.58,0-24.46-0.71-38.22-2.62c-5.61-0.78-10.64-3.9-13.81-8.58c-3.16-4.65-4.2-10.46-2.85-15.92
						l1.5-6.14c7.14-29.35,19.09-78.46,38.7-102.16c0.51-0.61,1.3-0.9,2.08-0.78c0.78,0.13,1.44,0.67,1.72,1.41l3.44,9.08l4.77-8.58
						c1.31-2.36,3.69-3.97,6.37-4.31l15.55-1.97c4.34-0.55,8.5,2.39,9.4,6.7l0.83,3.97l2.78-7.93c0.34-0.96,1.3-1.57,2.3-1.48
						c1.01,0.09,1.84,0.86,2,1.86l18.09,112.47c1.43,10.86-6.15,20.88-16.9,22.39l-0.31-2.21l0.31,2.21
						C-1083.37,1129.04-1096.29,1130.26-1111.43,1130.26z M-1125.07,1000.76c-17.57,23.95-28.67,69.56-35.41,97.3l-1.5,6.15
						c-1.06,4.3-0.27,8.69,2.22,12.35c2.46,3.63,6.38,6.06,10.74,6.67c31.24,4.32,57.9,2.4,74.76,0.03
						c8.34-1.17,14.22-8.95,13.11-17.33l-16.69-103.74l-2.52,7.17c-0.33,0.94-1.26,1.55-2.25,1.48c-1-0.06-1.83-0.79-2.03-1.76
						l-2.47-11.77c-0.43-2.05-2.39-3.46-4.49-3.19l-15.55,1.97c-1.28,0.16-2.41,0.93-3.04,2.06l-7.1,12.77
						c-0.42,0.76-1.24,1.2-2.11,1.14c-0.86-0.06-1.61-0.62-1.92-1.43L-1125.07,1000.76z"/>
				</g>
				<path d="M-1119.86,1111.41c-10.56,0-21.99-0.94-33.38-3.53c-1.2-0.27-1.95-1.47-1.68-2.67c0.28-1.2,1.47-1.95,2.67-1.68
					c38.82,8.85,79.48-2.53,79.89-2.64c1.18-0.34,2.41,0.35,2.75,1.53c0.34,1.18-0.35,2.42-1.53,2.75
					C-1072.36,1105.53-1093.38,1111.41-1119.86,1111.41z"/>
				<path d="M-1129.33,1067.84c-1.2,0-2.18-0.95-2.22-2.15c-0.04-1.23,0.92-2.26,2.15-2.3l37.14-1.23c1.22-0.01,2.26,0.92,2.3,2.15
					c0.04,1.23-0.92,2.26-2.15,2.3l-37.14,1.23C-1129.28,1067.84-1129.3,1067.84-1129.33,1067.84z"/>
				<g>
					<polygon class="st1" points="-940.41,929.03 -934.47,1014.54 -886.8,1014.54 -884.58,929.03 					"/>
					<path d="M-886.8,1016.76h-47.67c-1.17,0-2.14-0.91-2.22-2.07l-5.94-85.51c-0.04-0.62,0.17-1.22,0.59-1.67
						c0.42-0.45,1.01-0.71,1.63-0.71h55.83c0.6,0,1.18,0.24,1.6,0.67c0.42,0.43,0.65,1.01,0.63,1.61l-2.22,85.51
						C-884.6,1015.8-885.59,1016.76-886.8,1016.76z M-932.39,1012.31h43.42l2.1-81.05h-51.16L-932.39,1012.31z"/>
				</g>
				<g>
					<path class="st1" d="M-946.92,1062.81c-0.12,8.09,5.41,15.19,13.29,17.02c27.41,6.38,89.15,20.58,106.76,23.2
						c22.86,3.4,50.95-3.6,63.03-16.97c12.08-13.37-27.04-45.29-45.61-56.91c-27.58-17.25-54.08-51.36-65.19-52.89
						c-11.11-1.53-31.85,30.7-31.85,30.7l-33.9-14.24C-940.41,992.73-946.32,1021.78-946.92,1062.81z"/>
					<path d="M-814.92,1106.12c-4.15,0-8.28-0.29-12.29-0.88c-17.79-2.65-80.71-17.13-106.93-23.24
						c-8.83-2.06-15.14-10.14-15.01-19.23c0.61-40.76,6.5-70.2,6.56-70.49c0.13-0.65,0.55-1.21,1.14-1.53
						c0.59-0.31,1.29-0.34,1.9-0.08l32.19,13.52c5.25-7.93,21.98-31.66,33-30.13c6.28,0.87,15.28,9.41,27.73,21.22
						c11.61,11.01,24.76,23.5,38.33,31.98c14.91,9.33,46.45,34,48.79,50.74c0.53,3.77-0.39,6.98-2.7,9.54
						C-772.4,1098.85-793.97,1106.12-814.92,1106.12z M-938.72,995.85c-1.43,8.08-5.48,33.69-5.98,66.99
						c-0.1,7,4.76,13.24,11.56,14.82c26.17,6.09,88.95,20.54,106.58,23.17c22.92,3.41,49.73-3.73,61.04-16.26
						c1.41-1.57,1.94-3.51,1.6-5.94c-1.98-14.2-31.42-38-46.74-47.58c-13.95-8.72-27.27-21.37-39.03-32.53
						c-10.5-9.96-20.42-19.37-25.28-20.04c-7.05-0.98-21.95,17.7-29.67,29.7c-0.59,0.91-1.74,1.27-2.73,0.85L-938.72,995.85z
						 M-946.92,1062.81h0.02H-946.92z"/>
				</g>
				<path d="M-815.4,1090.45c-49.55,0-116.16-26.91-119.91-28.45c-1.14-0.47-1.68-1.77-1.22-2.9c0.46-1.14,1.77-1.68,2.9-1.22
					c1.22,0.5,121.96,49.29,157.5,17.19c0.92-0.82,2.32-0.75,3.15,0.16c0.82,0.91,0.75,2.32-0.16,3.15
					C-782.88,1087.17-798.1,1090.45-815.4,1090.45z"/>
				<path d="M-868.24,1038.64c-0.61,0-1.21-0.25-1.66-0.74c-0.82-0.91-0.75-2.32,0.16-3.14l24.25-21.87
					c0.92-0.82,2.32-0.75,3.15,0.16c0.82,0.91,0.75,2.32-0.16,3.14l-24.25,21.87C-867.17,1038.45-867.71,1038.64-868.24,1038.64z"/>
				<path d="M-1139.5,371.58c0,0-14.77,267.31-22.5,359.59c-7.73,92.28,18.08,240.61,18.08,240.61l73.59-3.87
					c0,0,5.04-180.35,10.51-230.44c0,0,31.08-67.9,40.3-128.45c9.21-60.55,40.59-156.2,40.59-156.2s25.48,477.39,27.94,514.9
					c0,0,57.71,2.57,78.39-10.45c0,0,36.66-174.07,31.39-268.78c-5.26-94.71,0.52-330.01,0.52-330.01L-1139.5,371.58z"/>
				<path class="st1" d="M-1073.38,739.69h-22.49c-1.23,0-2.23-1-2.23-2.23s1-2.23,2.23-2.23h22.49c1.23,0,2.23,1,2.23,2.23
					S-1072.15,739.69-1073.38,739.69z"/>
				<path class="st1" d="M-913.15,878.53c-0.01,0-0.03,0-0.04,0c-1.23-0.02-2.21-1.04-2.19-2.27
					c0.81-44.12,49.24-123.23,51.3-126.57c0.64-1.05,2.02-1.37,3.06-0.73c1.05,0.64,1.37,2.02,0.73,3.06
					c-0.5,0.81-49.85,81.42-50.64,124.32C-910.94,877.56-911.93,878.53-913.15,878.53z"/>
			</g>
			<g>
				<g>
					<path class="st1" d="M-817.4-55.94c5.36-0.42,31.65,53.43,113.94,51.17c82.29-2.26,148.31-94.34,148.31-94.34
						s28.42-47.92,49.99-65.25c21.57-17.32,24.95-19.61,24.95-19.61s6.76,9.01,0,19.61c-6.76,10.6-25.43,30.44-25.43,30.44
						s20.57,11.29,11.29,34.81c-10.67,27.05-40.73,24.88-40.73,24.88S-596.09,195.9-848.24,67.54L-817.4-55.94z"/>
					<path d="M-723.2,104.37c-38.29,0-80.44-11.63-126.05-34.85c-0.92-0.47-1.4-1.52-1.15-2.52l30.84-123.48
						c0.23-0.93,1.03-1.61,1.99-1.68c2.21-0.17,3.95,1.77,8.16,6.46c12.47,13.91,41.66,46.48,105.9,44.71
						c80.26-2.2,145.91-92.5,146.56-93.41c1.06-1.81,28.77-48.31,50.4-65.68c21.39-17.19,24.96-19.63,25.1-19.72
						c0.98-0.66,2.32-0.44,3.03,0.51c0.31,0.42,7.6,10.38,0.1,22.15c-5.63,8.83-19.03,23.58-23.9,28.85
						c5.43,4.05,17.85,16,9.96,36.01c-9.55,24.21-34.05,26.24-41.06,26.31c-3.84,15-33.69,121-118.71,160.9
						C-673.98,99.23-697.74,104.37-723.2,104.37z M-845.65,66.36c73.98,37.28,138.46,43.53,191.69,18.56
						c89.14-41.83,116.45-158.45,116.71-159.63c0.24-1.07,1.24-1.8,2.33-1.73c1.16,0.08,28.58,1.69,38.5-23.47
						c8.42-21.35-9.53-31.62-10.3-32.04c-0.6-0.33-1.02-0.93-1.12-1.61c-0.11-0.68,0.11-1.37,0.58-1.87
						c0.18-0.2,18.6-19.8,25.17-30.11c4.13-6.47,2.52-12.25,1.19-15.14c-2.74,2.08-9.05,6.97-22.87,18.07
						c-21.01,16.88-49.18,64.17-49.47,64.64c-0.77,1.09-67.72,93.17-150.16,95.43c-1.73,0.05-3.45,0.07-5.13,0.07
						c-62.74,0-91.66-32.27-104.21-46.26c-1.16-1.29-2.33-2.6-3.28-3.57L-845.65,66.36z"/>
				</g>
				<g>
					<path class="st1" d="M-1225.24,67.54c0,0,24.69-159.39,111.94-198.6c87.24-39.22,205.27-33.76,237.82-14.18
						C-842.94-125.66-758.1-37.11-758.1-37.11l-74.96,104.65c0,0,17.13,281.72,3.59,356.09c0,0-83.39,9.73-118.76-4.2
						c-35.37-13.93-151.67-33.45-207.26-7.91l10.1-356.67L-1225.24,67.54z"/>
					<path d="M-888.33,429.2c-22.15,0-45.58-1.74-60.73-7.7c-34.82-13.71-149.95-33.48-205.51-7.95c-0.7,0.32-1.51,0.26-2.16-0.17
						c-0.64-0.42-1.02-1.15-1-1.92l10.03-353.99l-77.19,12.27c-0.7,0.11-1.42-0.12-1.92-0.62c-0.5-0.5-0.74-1.22-0.63-1.92
						c1.02-6.56,25.88-161.03,113.22-200.29c85.98-38.65,204.79-35.17,239.88-14.06c32.43,19.51,114.37,104.87,117.84,108.5
						c0.74,0.77,0.83,1.97,0.2,2.84L-830.8,68.2c0.99,16.62,16.59,283.99,3.51,355.83c-0.18,0.96-0.96,1.7-1.93,1.81
						C-831.19,426.07-858.61,429.2-888.33,429.2z M-1079.93,396.83c52.73,0,109.67,11.53,132.51,20.52
						c31.74,12.5,104.19,5.5,116.04,4.24c12.81-75.68-3.74-351.13-3.91-353.92c-0.03-0.51,0.11-1.02,0.41-1.43l73.89-103.15
						c-10.75-11.14-85.89-88.53-115.64-106.43c-30.63-18.43-148.47-24.94-235.76,14.3c-78.57,35.32-106.14,171.75-110.13,193.89
						l76.77-12.2c0.66-0.1,1.32,0.09,1.82,0.53c0.5,0.44,0.77,1.07,0.76,1.74l-10,353.17
						C-1133.45,399.93-1107.25,396.83-1079.93,396.83z"/>
				</g>
				<path d="M-1078.87,340.24c-1.06,0-2-0.76-2.19-1.84c-0.21-1.21,0.59-2.37,1.81-2.58c132.6-23.43,171.31-115.25,171.68-116.17
					c0.46-1.14,1.76-1.69,2.9-1.23c1.14,0.46,1.69,1.76,1.23,2.9c-0.38,0.95-39.9,95-175.04,118.88
					C-1078.61,340.23-1078.74,340.24-1078.87,340.24z"/>
				<polygon points="-839.38,178.95 -1009.15,178.95 -955.98,-10.69 -786.21,-10.69 				"/>
				<g>
					<path class="st1" d="M-1210.27,68.15l85.92-38.41c0,0-12.1,145.58,161.73,78.36c0,0-6.41-18.71-5.5-40.56
						c0.91-21.85,13.98-0.71,15.81,17.05c1.83,17.76,42.64,10.55,67.17,3.55c24.53-7,56.72-2.42,0,28.87
						c-56.72,31.29-69.15,17.33-69.15,17.33s-72.43,101.36-162.56,79.82C-1227.7,187.69-1210.27,68.15-1210.27,68.15z"/>
					<path d="M-1091.7,219.36c-8.37,0-16.93-0.94-25.66-3.03c-58.31-13.93-81.07-53.64-89.91-84.49
						c-9.52-33.27-5.39-62.77-5.21-64.01c0.11-0.75,0.6-1.4,1.3-1.71l85.92-38.41c0.72-0.32,1.55-0.24,2.2,0.22
						c0.64,0.46,1,1.22,0.93,2c-0.04,0.53-3.97,53.39,30.67,79.28c26.79,20.03,69.21,19.21,126.09-2.44
						c-1.64-5.5-5.73-21.25-4.98-39.32c0.12-2.79,0.47-11.29,5.64-11.44c0.04,0,0.08,0,0.12,0c6.72,0,13.3,16.87,14.49,28.36
						c0.25,2.41,1.4,4.28,3.52,5.72c10.19,6.89,39.13,2.11,60.82-4.08c11.38-3.25,30.66-5.41,33.97,2.63
						c2.83,6.87-7.73,16.79-32.28,30.34c-46.48,25.63-64.14,21.61-69.76,18.47C-963.16,149.62-1019.76,219.36-1091.7,219.36z
						 M-1208.22,69.67c-0.66,5.87-2.97,32.4,5.27,61.09c12.39,43.14,41.54,70.47,86.62,81.24c8.38,2,16.63,2.91,24.68,2.91
						c76.08,0.01,134.9-80.96,135.55-81.86c0.39-0.55,1.02-0.89,1.69-0.93c0.71-0.04,1.33,0.24,1.78,0.74
						c0.08,0.07,12.81,11.76,66.41-17.8c32.08-17.7,30.59-24.07,30.32-24.74c-1.37-3.33-14.45-4.09-28.63-0.04
						c-11.5,3.28-50.14,13.23-64.54,3.48c-3.23-2.19-5.07-5.2-5.45-8.95c-1.33-12.91-7.87-23.99-10.05-24.36
						c0.04,0.08-1.07,1.27-1.32,7.17c-0.88,21.15,5.32,39.56,5.39,39.75c0.39,1.13-0.19,2.37-1.3,2.8
						c-59.4,22.97-103.93,23.84-132.34,2.59c-31.53-23.59-32.94-66.58-32.6-79.51L-1208.22,69.67z"/>
				</g>
			</g>
			<g>
				<path d="M-980.93-203.71c-7.42,6.8-21.93,15.09-33.29,9.37c-8.46-4.26-13.18-15.29-12.88-27.93c-3.91,0.32-9.05,0.04-12.71-3.19
					c-5.64-4.98-4.58-14.15-4.36-20.18c1.02-27.81-15.14-32.08-11.19-50.95c3.11-14.83,14.76-23.67,16.94-25.32
					c11-8.34,18.45-5.65,36.94-10.5c31.12-8.15,32.11-21.56,52.61-21.63c1.19,0,29.09,0.3,38.56,19.58
					c7.7,15.68-1.29,34.73-10.6,44.74c-12.04,12.96-20.69,6.56-32.78,17.43C-974.91-253.18-958.88-223.89-980.93-203.71z"/>
				<g>
					<path class="st1" d="M-918.83-253.33l-1.23-1.06c-6.16-5.31-12.57-11.47-14.2-19.43c-6.95-33.85-37.96-46.14-39.39-15.06
						c-0.36,7.84-29.01,7.44-25.61,15.67c8.86,21.47,9.06,15.69-3.45,23.6c-1.42,0.06-2.82,0.37-4.15,0.99
						c-6.41,2.99-8.68,11.7-5.07,19.45c2.19,4.71,6.06,7.94,10.18,9.12v33.92c0,12.71-7.69,24.16-19.46,28.98l-11.45,4.68
						c0,0,53.4,34.85,107.6-3.41l-7.23-3.24c-12.74-5.71-21.1-18.2-21.54-32.15l-0.06-6.63c3.64,0.32,7.17,0.08,10.43-0.87
						c15.16-4.41,20.2-21.88,17.62-43.59l6.17-3.32C-916.78-247.24-916.35-251.2-918.83-253.33z"/>
					<path d="M-979.86-135.84c-30.84,0-53.66-14.54-54.02-14.77c-0.69-0.45-1.08-1.25-1-2.08c0.08-0.82,0.61-1.54,1.37-1.85
						l11.45-4.68c10.98-4.49,18.07-15.05,18.07-26.91v-32.33c-4.26-1.71-7.84-5.19-9.97-9.77c-4.13-8.85-1.37-18.91,6.15-22.41
						c1.36-0.64,2.83-1.02,4.39-1.16c2.07-1.29,3.77-2.19,5.15-2.93c1.58-0.84,3.07-1.64,3.11-2.04c0.1-1.01-1.14-3.86-2.85-7.81
						c-0.91-2.1-2.02-4.65-3.31-7.78c-0.62-1.49-0.6-2.99,0.06-4.34c1.72-3.53,7.26-5.08,13.66-6.88c4.63-1.3,11.62-3.26,11.72-5.4
						c0.79-17.12,9.74-19.66,13.55-19.96c10.95-0.85,25.62,12.15,30.24,34.67c1.51,7.37,7.75,13.26,13.48,18.19l1.23,1.06
						c1.72,1.48,2.6,3.71,2.35,5.97c-0.25,2.26-1.59,4.24-3.59,5.32l-4.85,2.6c2.49,23.99-4.53,40.16-19.37,44.48
						c-2.72,0.79-5.69,1.15-8.81,1.09l0.04,4.26c0.41,12.96,8.35,24.81,20.22,30.14l7.23,3.24c0.73,0.33,1.23,1.02,1.3,1.82
						c0.08,0.8-0.28,1.57-0.93,2.03C-943.29-140.29-962.8-135.84-979.86-135.84z M-1027.57-152.15
						c12.74,6.68,54.99,24.64,97.96-3.34l-3.59-1.61c-13.42-6.02-22.39-19.41-22.85-34.11l-0.06-6.68
						c-0.01-0.63,0.25-1.23,0.72-1.66c0.46-0.43,1.08-0.64,1.71-0.58c3.5,0.31,6.74,0.05,9.62-0.79
						c12.85-3.74,18.69-18.75,16.03-41.19c-0.11-0.91,0.35-1.79,1.16-2.22l6.17-3.32c0.72-0.39,1.18-1.07,1.27-1.88
						c0.09-0.81-0.21-1.58-0.83-2.11c0,0,0,0,0,0l-1.23-1.06c-6.28-5.41-13.14-11.93-14.93-20.67c-4-19.5-16.45-31.84-25.53-31.13
						c-5.57,0.44-9.01,6.17-9.45,15.73c-0.25,5.36-7.4,7.37-14.97,9.49c-4.23,1.18-10.02,2.81-10.86,4.54
						c-0.05,0.1-0.12,0.26,0.05,0.69c1.28,3.1,2.38,5.63,3.28,7.71c4.19,9.64,5.06,11.65-2.25,15.56c-1.42,0.76-3.19,1.71-5.35,3.07
						c-0.33,0.21-0.71,0.33-1.1,0.34c-1.19,0.05-2.3,0.31-3.3,0.78c-5.29,2.47-7.08,9.86-4,16.49c1.82,3.91,5.11,6.87,8.77,7.92
						c0.96,0.27,1.62,1.15,1.62,2.14v33.91c0,13.68-8.18,25.86-20.84,31.04L-1027.57-152.15z"/>
				</g>
				<path d="M-953.89-195.69c-0.11,0-0.23-0.01-0.34-0.03c-21.85-3.35-31.67-20.03-32.08-20.73c-0.61-1.06-0.25-2.42,0.82-3.04
					c1.06-0.61,2.42-0.25,3.04,0.81c0.09,0.15,9.22,15.54,28.89,18.56c1.22,0.19,2.05,1.32,1.86,2.54
					C-951.86-196.48-952.8-195.69-953.89-195.69z"/>
			</g>
		</g>
		<g>
			<path d="M-1677.94,97.88c-2.8,0-5.6-0.57-8.26-1.69c-5.19-2.21-9.21-6.3-11.32-11.53c-4.36-10.8,0.88-23.13,11.68-27.48
				c10.79-4.36,23.12,0.88,27.48,11.68c4.36,10.8-0.88,23.13-11.68,27.48C-1672.6,97.37-1675.27,97.88-1677.94,97.88z
				 M-1677.97,60.09c-2.07,0-4.17,0.39-6.21,1.21c-8.52,3.44-12.65,13.17-9.21,21.69c1.67,4.13,4.84,7.36,8.93,9.1
				c4.1,1.74,8.62,1.78,12.75,0.12c8.52-3.44,12.65-13.17,9.21-21.69C-1665.11,64.04-1671.37,60.09-1677.97,60.09z"/>
			<g>
				<path d="M-121.59,144.73c-0.55,0-1.11-0.21-1.54-0.62c-0.89-0.85-0.92-2.26-0.07-3.15l10.44-10.91
					c0.85-0.89,2.26-0.92,3.15-0.07c0.89,0.85,0.92,2.26,0.07,3.15l-10.44,10.91C-120.42,144.5-121.01,144.73-121.59,144.73z"/>
				<path d="M-158.13,182.91c-0.55,0-1.11-0.2-1.54-0.62c-0.89-0.85-0.92-2.26-0.07-3.15l10.44-10.91c0.85-0.89,2.26-0.92,3.15-0.07
					c0.89,0.85,0.92,2.26,0.07,3.15l-10.44,10.91C-156.95,182.68-157.54,182.91-158.13,182.91z"/>
				<path d="M-147.89,145.32c-0.56,0-1.13-0.21-1.56-0.64l-10.6-10.44c-0.88-0.86-0.89-2.27-0.02-3.15
					c0.86-0.88,2.27-0.89,3.15-0.02l10.6,10.44c0.88,0.86,0.89,2.27,0.02,3.15C-146.74,145.09-147.31,145.32-147.89,145.32z"/>
				<path d="M-110.8,181.86c-0.56,0-1.13-0.21-1.56-0.64l-10.59-10.44c-0.88-0.86-0.89-2.27-0.02-3.15
					c0.86-0.88,2.27-0.89,3.15-0.02l10.6,10.44c0.88,0.86,0.89,2.27,0.02,3.15C-109.65,181.64-110.23,181.86-110.8,181.86z"/>
			</g>
			<g>
				<path d="M-877.84-492.11c-0.55,0-1.11-0.2-1.54-0.62c-0.89-0.85-0.92-2.26-0.07-3.15l10.44-10.91c0.85-0.89,2.26-0.92,3.15-0.07
					c0.89,0.85,0.92,2.26,0.07,3.15l-10.44,10.91C-876.67-492.34-877.26-492.11-877.84-492.11z"/>
				<path d="M-914.38-453.93c-0.55,0-1.11-0.2-1.54-0.62c-0.89-0.85-0.92-2.26-0.07-3.15l10.44-10.91c0.85-0.89,2.26-0.92,3.15-0.07
					c0.89,0.85,0.92,2.26,0.07,3.15l-10.44,10.91C-913.2-454.16-913.79-453.93-914.38-453.93z"/>
				<path d="M-904.14-491.53c-0.56,0-1.13-0.21-1.56-0.64l-10.6-10.44c-0.88-0.86-0.89-2.27-0.02-3.15
					c0.86-0.88,2.27-0.89,3.15-0.02l10.6,10.44c0.88,0.86,0.89,2.27,0.02,3.15C-902.99-491.75-903.56-491.53-904.14-491.53z"/>
				<path d="M-867.05-454.98c-0.56,0-1.13-0.21-1.56-0.64l-10.6-10.44c-0.88-0.86-0.89-2.27-0.02-3.15
					c0.86-0.88,2.27-0.89,3.15-0.02l10.6,10.44c0.88,0.86,0.89,2.27,0.02,3.15C-865.9-455.2-866.48-454.98-867.05-454.98z"/>
			</g>
		</g>
		<g>
			<g>
				<g>
					<g>
						<polygon class="st1" points="-1198.94,907.15 -1232.76,1253.45 -1256.89,1252.43 -1244.9,888.38 						"/>
						<path d="M-1232.76,1255.67c-0.03,0-0.06,0-0.09,0l-24.13-1.01c-1.22-0.05-2.17-1.08-2.13-2.3l11.99-364.05
							c0.02-0.73,0.4-1.4,1.01-1.8c0.61-0.4,1.38-0.47,2.05-0.19l45.96,18.77c0.91,0.37,1.47,1.3,1.37,2.28l-33.82,346.3
							C-1230.65,1254.81-1231.62,1255.67-1232.76,1255.67z M-1254.59,1250.3l19.82,0.83l33.45-342.55l-41.47-16.93L-1254.59,1250.3z
							"/>
					</g>
					<g>
						<polygon class="st1" points="-1652.58,894.69 -1619.57,1254.31 -1594.62,1252.43 -1606.61,875.24 						"/>
						<path d="M-1619.58,1256.53c-1.14,0-2.11-0.87-2.22-2.02l-33-359.62c-0.09-0.97,0.46-1.88,1.35-2.25l45.96-19.44
							c0.68-0.29,1.45-0.22,2.07,0.18c0.62,0.4,1,1.07,1.03,1.81l11.99,377.19c0.04,1.19-0.87,2.2-2.06,2.29l-24.95,1.87
							C-1619.46,1256.53-1619.52,1256.53-1619.58,1256.53z M-1650.21,896.1l32.65,355.82l20.64-1.55l-11.82-371.81L-1650.21,896.1z"
							/>
					</g>
					<g>
						<polygon class="st1" points="-1767.46,810.06 -1757.75,1187.69 -1738.27,1183.47 -1720.4,792.11 						"/>
						<path d="M-1757.75,1189.92c-0.49,0-0.98-0.16-1.38-0.48c-0.52-0.41-0.83-1.03-0.85-1.69l-9.71-377.63
							c-0.03-0.94,0.55-1.8,1.43-2.14l47.06-17.96c0.7-0.27,1.49-0.16,2.1,0.28c0.61,0.44,0.95,1.16,0.92,1.91l-17.87,391.36
							c-0.05,1.01-0.77,1.86-1.75,2.07l-19.48,4.22C-1757.44,1189.9-1757.6,1189.92-1757.75,1189.92z M-1765.2,811.58l9.6,373.36
							l15.18-3.29l17.63-386.26L-1765.2,811.58z"/>
					</g>
					<polygon class="st1" points="-1386.77,801.62 -1377.06,1179.25 -1356.81,1179.36 -1339.71,783.66 					"/>
					<g>
						<path class="st1" d="M-1484.58,506.7v87.87c0,85.93,67.78,155.6,151.38,155.6c83.6,0,151.38,69.66,151.38,155.6
							c0,7.66-6.2,13.86-13.84,13.86h-400.71c-125.33,0-226.94-104.43-226.94-233.26V498.88c0-51.24,40.41-92.78,90.26-92.78h150.6
							C-1528.4,406.1-1484.58,451.14-1484.58,506.7z"/>
						<path d="M-1195.66,921.85h-400.71c-126.36,0-229.17-105.64-229.17-235.49V498.88c0-52.38,41.49-95,92.49-95h150.6
							c55.19,0,100.09,46.13,100.09,102.82v87.87c0,84.57,66.91,153.37,149.15,153.37c84.7,0,153.61,70.8,153.61,157.82
							C-1179.59,914.63-1186.8,921.85-1195.66,921.85z M-1733.05,408.33c-48.54,0-88.03,40.62-88.03,90.55v187.48
							c0,127.39,100.81,231.03,224.71,231.03h400.71c6.4,0,11.61-5.22,11.61-11.64c0-84.57-66.91-153.37-149.15-153.37
							c-84.7,0-153.61-70.8-153.61-157.82V506.7c0-54.24-42.9-98.37-95.64-98.37H-1733.05z"/>
					</g>
				</g>
				<g>
					<g>
						<path d="M-1862.12,342.75c-6.14-2.54-11.55-6.97-14.95-13.04c-5.04-8.99-7.73-23.38,3.59-43.94
							c25.57-46.43,68.28-24.48,84.62-29.86c36.61-12.05,27.95-31.85,42.83-51.08c11.13-14.39,49.56-41.54,107.93,9.03
							c0,0,26.21,35.77,55.92,22.16c36.5-16.72,109.84,21.11,86.67,77.36c-6.68,16.22-18.72,28.69-33.39,35.46
							c-2.66,1.23-5.57,2.41-8.73,3.5c-9.15,3.15-16.22,11.31-18.51,21.83c-7.46,34.26-35.71,100.39-140.55,33.84
							c-7.91-5.02-17.29-5.65-25.47-1.86c-10.05,4.67-20.95,22.75-69.41,15.12c-31.13-4.9-41.02-41.13-49.24-57.62
							C-1847.35,350.54-1856.75,344.97-1862.12,342.75z"/>
					</g>
					<g>
						<g>
							<path class="st1" d="M-1323.04,595.58c-41.23,12.89-120.21-22.88-133.68-82.88c-10.68-47.57-27.37-71.71-33.83-79.68
								c-3.09-5.27-7.15-10.22-12.52-14.94c-38.4-33.75-104.91-22.82-133.69-18.09c-32.65,5.36-59.7,9.81-78.09,30.52
								c-4.89,5.5-8.35,11.26-10.73,17.39l0-0.02c-35.14,66.17-6.66,134.49,10.91,166.05c2.9,126.55-38.95,106.66-27.62,162.85
								c15.95,79.16,143.43,49.57,189.8,39.46c16.27-3.55,101.45,21.75,122.27-43.97c12.15-38.35-10.94-56.06-31.33-121.31
								c104.45,64.92,182.03-45.79,182.03-45.79l8.05-38.81C-1271.47,566.36-1292.54,586.04-1323.04,595.58z"/>
							<path d="M-1651.88,832.38c-24.71,0-48.55-3.89-66.17-15.4c-14.06-9.18-22.95-22.55-26.42-39.76
								c-5.08-25.2,0.22-35.56,7.54-49.9c9.12-17.84,21.6-42.26,20.05-112.78c-19.13-34.56-45.61-101.85-10.68-167.66
								c2.56-6.51,6.17-12.35,11.05-17.84c18.92-21.3,46.94-25.91,79.4-31.24c28.83-4.74,96.33-15.83,135.52,18.62
								c5.37,4.71,9.58,9.73,12.88,15.34c6.8,8.42,23.48,32.87,34.17,80.46c5.8,25.84,25.32,50.01,53.55,66.3
								c26.7,15.41,57.04,21.27,77.29,14.94c29.62-9.26,50.5-28.53,50.71-28.72c0.71-0.66,1.77-0.79,2.61-0.31
								c0.84,0.48,1.29,1.44,1.09,2.39l-8.05,38.81c-0.06,0.3-0.18,0.58-0.36,0.83c-0.2,0.28-20.04,28.29-52.52,47.87
								c-29.21,17.6-74.67,31.76-127.41,1.57c6.49,19.78,13.22,35.17,18.72,47.74c11.44,26.17,19,43.45,10.81,69.31
								c-16.94,53.46-74.98,48.61-106.17,46.01c-7.85-0.65-14.62-1.22-17.75-0.54l-2.9,0.63
								C-1577.99,824.09-1615.85,832.38-1651.88,832.38z M-1723.73,449.16c-33.95,64.2-7.69,130.1,11.01,163.69
								c0.18,0.32,0.27,0.67,0.28,1.03c1.65,72.07-11.16,97.15-20.52,115.46c-7.17,14.04-11.92,23.32-7.14,47
								c3.22,15.99,11.46,28.41,24.48,36.91c41.76,27.26,121.45,9.83,159.75,1.45l2.91-0.64c3.78-0.82,10.19-0.29,19.07,0.45
								c32.05,2.67,85.69,7.15,101.56-42.92c7.69-24.26,0.78-40.04-10.65-66.18c-6.05-13.84-13.58-31.05-20.69-53.79
								c-0.28-0.89,0.03-1.86,0.76-2.43c0.74-0.57,1.75-0.62,2.54-0.13c42.51,26.42,85.48,26.93,127.74,1.51
								c29.72-17.88,48.62-43.01,51.03-46.32l6.64-32.01c-8.04,6.41-25.16,18.51-47.41,25.46c-21.39,6.69-53.12,0.67-80.85-15.33
								c-29.31-16.91-49.6-42.13-55.67-69.18c-10.53-46.92-26.86-70.71-33.39-78.76c-0.07-0.09-0.13-0.18-0.19-0.28
								c-3.07-5.25-7.02-9.95-12.06-14.39c-37.61-33.05-103.65-22.2-131.86-17.57c-32.92,5.41-58.92,9.68-76.79,29.8
								c-4.58,5.15-7.95,10.62-10.32,16.72C-1723.56,448.87-1723.64,449.02-1723.73,449.16z M-1323.04,595.58h0.02H-1323.04z"/>
						</g>
						<g>
							<path class="st1" d="M-1505.29,585.24c0,0,75.21-27.42,98.69-77.54l48.41-45.11c0,0-0.68,21.81-15.06,30.91
								c0,0,12.34,24.85-5.87,42c0,0-13.66,10.86-21.8,11.05c0,0-23.84,78.31-88.21,101.63
								C-1489.12,648.18-1507.2,620.7-1505.29,585.24z"/>
							<path d="M-1489.12,650.41c-0.73,0-1.44-0.36-1.86-1c-0.75-1.15-18.46-28.5-16.53-64.29c0.05-0.89,0.62-1.67,1.46-1.97
								c0.74-0.27,74.62-27.69,97.44-76.39c0.12-0.26,0.29-0.49,0.5-0.68l48.41-45.11c0.66-0.61,1.62-0.77,2.44-0.4
								c0.82,0.37,1.33,1.2,1.31,2.1c-0.03,0.9-0.84,21.54-14.52,31.64c2.48,6.25,9.17,27.48-7.11,42.82
								c-0.68,0.55-12.9,10.2-21.66,11.51c-3.69,10.85-29.28,79.97-89.11,101.64C-1488.61,650.36-1488.87,650.41-1489.12,650.41z
								 M-1503.13,586.8c-1.11,29.01,11.42,52.6,14.96,58.65c61.32-23.44,84.9-98.79,85.13-99.55c0.28-0.92,1.12-1.55,2.08-1.58
								c6.06-0.15,16.83-7.68,20.47-10.57c16.62-15.67,5.73-38.32,5.26-39.27c-0.5-1.02-0.16-2.26,0.8-2.87
								c8.78-5.56,12.08-16.48,13.31-23.24l-43.64,40.67C-1427.06,555.99-1492.41,582.69-1503.13,586.8z"/>
						</g>
						<path d="M-1573.09,673.06c-62.67,0-98.64-31.05-99.12-31.48c-0.92-0.82-1-2.22-0.19-3.14c0.82-0.92,2.22-1.01,3.14-0.19
							c0.63,0.56,64.65,55.61,171.19,16.08c1.15-0.43,2.43,0.16,2.86,1.31c0.43,1.15-0.16,2.43-1.31,2.86
							C-1525.15,669.13-1550.81,673.06-1573.09,673.06z"/>
						<path d="M-1534.62,588.26c-54.6,0-86.39-31.09-103.8-58.5c-20.48-32.24-25.93-66.49-25.98-66.84
							c-0.19-1.22,0.65-2.35,1.86-2.54c1.23-0.19,2.35,0.65,2.54,1.86c0.05,0.33,5.39,33.79,25.41,65.24
							c26.67,41.9,65.39,60.59,115.08,55.53c1.21-0.13,2.32,0.77,2.44,1.99c0.12,1.22-0.77,2.32-1.99,2.44
							C-1524.44,588-1529.62,588.26-1534.62,588.26z"/>
						<path d="M-1492.27,548.78c-0.11,0-0.22-0.01-0.33-0.02c-1.22-0.18-2.06-1.31-1.88-2.53c9.82-67.14-20.9-105.12-21.21-105.5
							c-0.78-0.95-0.65-2.35,0.29-3.14c0.95-0.79,2.35-0.66,3.13,0.29c1.32,1.59,32.32,39.78,22.19,108.99
							C-1490.24,547.98-1491.19,548.78-1492.27,548.78z"/>
					</g>
					<g>
						<g>
							<path class="st1" d="M-1506.15,360.11c-2.09-13.98,1.26-51.09,0.65-50.19c-5.99,8.78-25.71-1.61-43.46-2.31
								c-17.76-0.7-11.78,25.97-11.78,25.97s-5.2-18.1-16.28-6.77c-6.43,6.58,0.66,15.06,7.26,20.61
								c-1.81,2.07-33.8,36.54-53.39,57.04l43.45,32.98l21.75-20.32l-4.43-7.07c-3.16-5.04-3.45-11.37-0.75-16.67l10.64-18.03
								c2.44,2.95,5.53,6.33,8.37,8.32c5.67,3.95,12.71,3.34,17.71-1.43c6.85-6.54,11.65-13.89,13.82-21.03L-1506.15,360.11z"/>
							<path d="M-1579.7,439.66c-0.47,0-0.95-0.15-1.35-0.45l-43.45-32.98c-0.51-0.38-0.82-0.97-0.87-1.6
								c-0.05-0.63,0.17-1.26,0.61-1.72c17.9-18.73,45.05-47.94,51.83-55.32c-4.21-3.85-8.57-9.09-8.83-14.45
								c-0.14-2.95,0.92-5.61,3.15-7.89c3.54-3.62,7.05-5.02,10.46-4.16c1.64,0.41,3.04,1.32,4.23,2.45
								c0.08-4.74,0.98-10.07,4.03-13.73c2.6-3.13,6.3-4.61,11.02-4.43c6.7,0.26,13.72,1.88,19.92,3.3
								c10.02,2.3,18.67,4.29,21.62-0.02c0.56-0.83,1.63-1.19,2.58-0.87c1.75,0.59,1.75,0.59,1.2,10.38
								c-0.63,11.23-1.8,32.14-0.38,41.61c0.18,1.2-0.63,2.32-1.83,2.52l-5.11,0.87c-2.47,7.15-7.28,14.27-13.99,20.67
								c-5.78,5.52-14.03,6.18-20.52,1.64c-1.98-1.38-4.25-3.51-6.76-6.33l-9.05,15.35c-2.26,4.46-2.02,10,0.71,14.35l4.43,7.07
								c0.57,0.9,0.41,2.08-0.37,2.81l-21.75,20.32C-1578.61,439.46-1579.15,439.66-1579.7,439.66z M-1619.82,404.19l39.97,30.34
								l19.04-17.78l-3.46-5.51c-3.56-5.67-3.88-12.9-0.84-18.86l10.7-18.15c0.37-0.63,1.02-1.03,1.74-1.09
								c0.72-0.06,1.43,0.24,1.89,0.8c3.09,3.73,5.76,6.39,7.93,7.91c4.78,3.34,10.63,2.86,14.9-1.21
								c6.56-6.27,11.14-13.21,13.23-20.07c0.25-0.81,0.93-1.4,1.76-1.55l4.34-0.74c-1.06-10.59,0.01-29.73,0.61-40.35
								c0.06-1.15,0.13-2.29,0.18-3.32c-5.33,2.28-13.27,0.46-22.13-1.58c-6.3-1.45-12.81-2.94-19.1-3.19
								c-3.28-0.13-5.73,0.8-7.42,2.83c-4.31,5.18-2.98,16.5-2.1,20.43c0.26,1.17-0.45,2.34-1.62,2.64
								c-1.16,0.3-2.36-0.38-2.69-1.54c-0.58-2.01-3.01-7.94-6.37-8.78c-1.75-0.44-3.83,0.55-6.18,2.96
								c-1.35,1.38-1.97,2.87-1.89,4.56c0.17,3.52,3.37,8.06,8.99,12.79c0.46,0.39,0.74,0.94,0.79,1.54
								c0.05,0.6-0.15,1.19-0.55,1.64C-1569.77,350.79-1599.73,383.11-1619.82,404.19z"/>
						</g>
						<g>
							<path class="st1" d="M-1555.89,370.61l3.4,4.74L-1555.89,370.61z"/>
							<path d="M-1552.49,377.57c-0.69,0-1.38-0.32-1.81-0.93l-3.4-4.74c-0.72-1-0.49-2.39,0.51-3.11c1-0.72,2.39-0.49,3.11,0.51
								l3.4,4.74c0.72,1,0.49,2.39-0.51,3.11C-1551.59,377.44-1552.04,377.57-1552.49,377.57z"/>
						</g>
					</g>
					<g>
						<g>
							<path class="st1" d="M-1178.09,1075.1c-0.43,1.77,20.39,97.02,20.39,97.02l-47.84-8.01l-14.41-80.53L-1178.09,1075.1z"/>
							<path d="M-1157.7,1174.35c-0.12,0-0.24-0.01-0.37-0.03l-47.84-8.01c-0.93-0.16-1.66-0.88-1.82-1.8l-14.41-80.53
								c-0.21-1.19,0.56-2.34,1.75-2.58l41.87-8.48c0.75-0.15,1.52,0.09,2.05,0.64c0.43,0.45,0.65,1.05,0.62,1.66
								c0.32,3.95,12.31,59.7,20.34,96.44c0.16,0.72-0.05,1.48-0.56,2.01C-1156.51,1174.1-1157.1,1174.35-1157.7,1174.35z
								 M-1203.63,1162.18l43.05,7.21c-14.22-65.11-18.24-85.22-19.33-91.64l-37.48,7.59L-1203.63,1162.18z"/>
						</g>
						<g>
							<g>
								<path class="st1" d="M-1183.11,1140.88c2.93-2.46,7.11-4.86,12.44-5.09c8.02-0.34,15.33,4.68,18.65,12.05
									c8.3,18.44,30.17,69.81,36.36,111.79c2.19,14.84-9.01,26.91-26.46,17.18c-28.59-15.93-68.25-52.51-89.02-106.54
									c-2.38-6.2-1.53-13.21,2.38-18.57c3.2-4.37,7.53-9.66,12.57-14.17c4.81-4.31,12.05-4.37,17.04-0.27l4.49,3.7
									C-1191.28,1143.74-1186.45,1143.69-1183.11,1140.88z"/>
								<path d="M-1130.34,1282.56c-3.51,0-7.8-0.97-12.87-3.8c-29.91-16.67-69.27-53.71-90.01-107.68
									c-2.69-6.99-1.69-14.73,2.66-20.68c4.2-5.74,8.53-10.63,12.88-14.52c5.64-5.05,14.02-5.2,19.94-0.33l4.5,3.7
									c2.52,2.08,6.18,2.05,8.7-0.07c4.12-3.46,8.88-5.4,13.77-5.61c8.64-0.37,17.01,5,20.78,13.36
									c8.93,19.84,30.36,70.51,36.53,112.38c1.26,8.56-1.58,16.38-7.41,20.41C-1122.79,1281.03-1125.95,1282.56-1130.34,1282.56z
									 M-1207.55,1136.45c-2.57,0-5.11,0.92-7.15,2.74c-4.12,3.69-8.24,8.34-12.26,13.83c-3.46,4.73-4.24,10.88-2.1,16.45
									c20.32,52.86,58.79,89.1,88.02,105.39c6.9,3.85,13.16,4.26,17.63,1.18c4.43-3.06,6.55-9.22,5.54-16.09
									c-6.08-41.31-27.33-91.53-36.18-111.2c-3.02-6.72-9.65-11.04-16.52-10.74c-3.96,0.17-7.69,1.71-11.1,4.57
									c-4.16,3.5-10.21,3.54-14.4,0.1l-4.5-3.7C-1202.62,1137.3-1205.1,1136.45-1207.55,1136.45z"/>
							</g>
							<path d="M-1126.55,1265.83c-3.77,0-44.11-2.36-93.03-99.04c-0.56-1.1-0.12-2.44,0.98-2.99c1.1-0.56,2.44-0.12,2.99,0.98
								c49.03,96.9,88.71,96.61,89.13,96.6c1.29-0.05,2.26,0.92,2.31,2.15c0.04,1.23-0.92,2.26-2.15,2.3
								C-1126.37,1265.83-1126.45,1265.83-1126.55,1265.83z"/>
							<path d="M-1157.17,1212.61c-0.89,0-1.73-0.53-2.07-1.41c-0.45-1.14,0.11-2.44,1.25-2.89l22.68-8.95
								c1.15-0.45,2.44,0.11,2.89,1.25s-0.11,2.44-1.25,2.89l-22.68,8.95C-1156.62,1212.56-1156.9,1212.61-1157.17,1212.61z"/>
							<path d="M-1165.12,1195.23c-0.89,0-1.73-0.54-2.08-1.42c-0.45-1.15,0.12-2.44,1.27-2.88l26.6-10.35
								c1.15-0.45,2.44,0.12,2.88,1.27c0.45,1.15-0.12,2.44-1.27,2.88l-26.6,10.35
								C-1164.58,1195.18-1164.85,1195.23-1165.12,1195.23z"/>
						</g>
						<g>
							<path class="st1" d="M-1383.97,1083.75c-1.13,1.43-22.28,96.61-22.28,96.61l-40.05-27.38l20.77-79.13L-1383.97,1083.75z"/>
							<path d="M-1406.25,1182.58c-0.44,0-0.88-0.13-1.26-0.39l-40.05-27.38c-0.78-0.53-1.14-1.49-0.9-2.4l20.77-79.13
								c0.31-1.17,1.49-1.88,2.67-1.6l41.56,9.9c0.74,0.18,1.34,0.72,1.59,1.44c0.2,0.59,0.15,1.22-0.13,1.76
								c-1.37,3.72-13.92,59.34-22.08,96.06c-0.16,0.72-0.67,1.32-1.36,1.59C-1405.7,1182.53-1405.97,1182.58-1406.25,1182.58z
								 M-1443.74,1152.03l36.03,24.63c14.47-65.05,19.27-84.99,20.98-91.28l-37.2-8.86L-1443.74,1152.03z"/>
						</g>
						<g>
							<g>
								<path class="st1" d="M-1416.17,1141.33c3.69-1,8.5-1.42,13.42,0.61c7.42,3.06,11.94,10.69,11.86,18.78
									c-0.22,20.22-1.96,76.02-14,116.72c-4.25,14.38-19.48,20.63-31.23,4.47c-19.25-26.48-39.86-76.34-35.99-134.08
									c0.44-6.63,4.16-12.63,9.96-15.84c4.74-2.62,10.9-5.6,17.36-7.58c6.18-1.89,12.77,1.1,15.58,6.92l2.53,5.24
									C-1424.79,1140.48-1420.38,1142.47-1416.17,1141.33z"/>
								<path d="M-1420.7,1293.68c-4.42,0-10.95-1.84-17.22-10.47c-20.14-27.7-40.28-77.85-36.41-135.54
									c0.5-7.48,4.65-14.07,11.11-17.64c6.22-3.44,12.2-6.05,17.79-7.76c7.24-2.21,14.91,1.18,18.23,8.08l2.53,5.24
									c1.42,2.94,4.75,4.46,7.92,3.6c5.19-1.41,10.33-1.17,14.86,0.7c8.02,3.3,13.34,11.69,13.24,20.86
									c-0.24,21.76-2.09,76.75-14.09,117.32c-2.45,8.3-8.32,14.2-15.31,15.4C-1418.82,1293.59-1419.7,1293.68-1420.7,1293.68z
									 M-1440.98,1126.05c-1.04,0-2.11,0.15-3.15,0.47c-5.29,1.62-10.99,4.11-16.93,7.4c-5.13,2.84-8.42,8.09-8.82,14.05
									c-3.78,56.5,15.9,105.56,35.57,132.62c4.64,6.39,10.14,9.4,15.5,8.48c5.3-0.91,9.82-5.62,11.79-12.27
									c11.84-40.04,13.67-94.54,13.91-116.11c0.08-7.37-4.13-14.08-10.48-16.69c-3.67-1.51-7.7-1.68-11.99-0.52
									c-5.25,1.43-10.75-1.08-13.1-5.96l-2.53-5.24C-1433.09,1128.38-1436.91,1126.05-1440.98,1126.05z"/>
							</g>
							<path d="M-1416.3,1278.75c-0.29,0-0.58-0.06-0.86-0.17c-1.6-0.67-39.14-17.72-42.99-129.06c-0.04-1.23,0.92-2.26,2.15-2.3
								c1.2-0.03,2.26,0.92,2.3,2.15c3.76,108.52,39.9,124.96,40.27,125.11c1.13,0.48,1.67,1.78,1.19,2.92
								C-1414.6,1278.23-1415.43,1278.75-1416.3,1278.75z"/>
							<path d="M-1397.5,1218.93c-0.04,0-0.09,0-0.13,0l-24.34-1.41c-1.23-0.07-2.17-1.12-2.09-2.35c0.07-1.23,1.1-2.16,2.35-2.09
								l24.34,1.41c1.23,0.07,2.17,1.12,2.09,2.35C-1395.35,1218.02-1396.33,1218.93-1397.5,1218.93z"/>
							<path d="M-1393.26,1200.2c-0.05,0-0.09,0-0.14,0l-28.49-1.79c-1.23-0.08-2.16-1.13-2.08-2.36c0.08-1.23,1.15-2.16,2.36-2.08
								l28.49,1.79c1.23,0.08,2.16,1.13,2.08,2.36C-1391.12,1199.3-1392.1,1200.2-1393.26,1200.2z"/>
						</g>
						<path d="M-1607.75,708.61c0,0,291.34-12.64,323.19,16.93c43.2,40.12,117.42,374.11,117.42,374.11l-71.66,20.09
							c0,0-107.98-274.1-134.73-274.1s-279-9-279-9L-1607.75,708.61z"/>
						<path d="M-1627.01,701.32c-23.03-1.18-43.61,14.2-49.03,36.62c-8.4,34.72-15.66,82.2,3.13,94.84
							c30.58,20.57,250.98,18.82,243.33,16.25c-7.64-2.57-19.71,184.7-19.71,256.71l69.39,2.68c0,0,110.59-289.61,98.67-321.95
							c-21.33-57.85-185.49-71.11-238.02-78.84C-1526.3,706.59-1586.21,703.4-1627.01,701.32z"/>
						<path class="st1" d="M-1317.87,945.82c-0.23,0-0.45-0.03-0.68-0.11c-1.17-0.38-1.82-1.63-1.44-2.8
							c2.5-7.79,4.98-15.45,7.4-22.96c19.42-60.01,36.19-111.83,29.25-132.79c-14.74-44.49-124.99-61.55-161.22-67.15
							c-1.22-0.19-2.05-1.33-1.86-2.54c0.19-1.22,1.33-2.05,2.54-1.86c64.03,9.91,150.78,27.95,164.76,70.15
							c7.4,22.34-8.77,72.3-29.24,135.56c-2.43,7.5-4.91,15.16-7.4,22.94C-1316.05,945.21-1316.93,945.82-1317.87,945.82z"/>
					</g>
				</g>
			</g>
			<g>
				<g>
					<g>
						<polygon class="st1" points="-679.71,855.75 -645.89,1202.05 -621.75,1201.04 -633.74,836.99 						"/>
						<path d="M-645.89,1204.28c-1.14,0-2.1-0.87-2.22-2.01l-33.82-346.3c-0.1-0.98,0.46-1.91,1.37-2.28l45.96-18.77
							c0.67-0.28,1.44-0.2,2.05,0.19c0.61,0.4,0.99,1.07,1.01,1.8l11.99,364.05c0.04,1.22-0.91,2.25-2.13,2.3l-24.13,1.01
							C-645.83,1204.28-645.86,1204.28-645.89,1204.28z M-677.33,857.19l33.45,342.55l19.82-0.83l-11.81-358.65L-677.33,857.19z"/>
					</g>
					<g>
						<polygon class="st1" points="-226.07,843.29 -259.07,1202.91 -284.02,1201.04 -272.03,823.85 						"/>
						<path d="M-259.07,1205.14c-0.06,0-0.11,0-0.17-0.01l-24.95-1.87c-1.19-0.09-2.1-1.1-2.06-2.29l11.99-377.19
							c0.02-0.73,0.41-1.41,1.03-1.81c0.62-0.4,1.39-0.46,2.07-0.18l45.96,19.44c0.89,0.38,1.44,1.29,1.35,2.25l-33,359.62
							C-256.96,1204.27-257.93,1205.14-259.07,1205.14z M-281.73,1198.98l20.64,1.55l32.65-355.82l-41.47-17.54L-281.73,1198.98z"/>
					</g>
					<g>
						<polygon class="st1" points="-111.18,758.67 -120.89,1136.3 -140.38,1132.07 -158.24,740.71 						"/>
						<path d="M-120.89,1138.52c-0.16,0-0.32-0.02-0.47-0.05l-19.48-4.22c-0.99-0.21-1.71-1.07-1.75-2.07l-17.87-391.36
							c-0.03-0.75,0.31-1.47,0.92-1.91c0.61-0.44,1.4-0.54,2.1-0.28l47.06,17.96c0.88,0.34,1.46,1.19,1.43,2.14l-9.71,377.63
							c-0.02,0.66-0.33,1.28-0.85,1.69C-119.91,1138.36-120.4,1138.52-120.89,1138.52z M-138.23,1130.26l15.18,3.29l9.6-373.36
							l-42.41-16.18L-138.23,1130.26z"/>
					</g>
					<g>
						<polygon class="st1" points="-491.88,750.22 -501.59,1127.85 -521.83,1127.96 -538.94,732.27 						"/>
						<path d="M-521.83,1130.19c-1.19,0-2.17-0.94-2.22-2.13l-17.11-395.69c-0.03-0.75,0.31-1.46,0.92-1.9
							c0.61-0.44,1.4-0.54,2.1-0.27l47.06,17.96c0.88,0.34,1.46,1.19,1.43,2.14l-9.71,377.63c-0.03,1.2-1.01,2.16-2.21,2.17
							l-20.24,0.11C-521.82,1130.19-521.83,1130.19-521.83,1130.19z M-536.57,735.56l16.87,390.17l15.94-0.09l9.61-373.89
							L-536.57,735.56z"/>
					</g>
					<g>
						<path class="st1" d="M-394.07,455.3v87.87c0,85.93-67.77,155.6-151.38,155.6s-151.38,69.66-151.38,155.6
							c0,7.66,6.2,13.86,13.84,13.86h400.71c125.33,0,226.94-104.43,226.94-233.26V447.48c0-51.24-40.41-92.78-90.26-92.78h-150.6
							C-350.25,354.71-394.07,399.74-394.07,455.3z"/>
						<path d="M-282.28,870.45h-400.71c-8.86,0-16.06-7.22-16.06-16.09c0-87.02,68.91-157.82,153.61-157.82
							c82.24,0,149.15-68.8,149.15-153.37V455.3c0-56.7,44.9-102.82,100.1-102.82h150.6c51,0,92.49,42.62,92.49,95v187.48
							C-53.11,764.81-155.91,870.45-282.28,870.45z M-296.2,356.93c-52.74,0-95.64,44.13-95.64,98.37v87.87
							c0,87.02-68.91,157.82-153.61,157.82c-82.24,0-149.15,68.8-149.15,153.37c0,6.42,5.21,11.64,11.61,11.64h400.71
							c123.91,0,224.71-103.64,224.71-231.03V447.48c0-49.93-39.49-90.55-88.03-90.55H-296.2z"/>
					</g>
				</g>
				<g>
					<g>
						<g>
							<path class="st1" d="M-422.67,459.44c0,0-21.84,198.56-168.52,211.56l168.52,2.4c0,0,62.4-126.58,64.93-175.87
								C-355.21,448.24-422.67,459.44-422.67,459.44z"/>
							<path d="M-422.67,675.62c-0.01,0-0.02,0-0.03,0l-168.52-2.4c-1.19-0.02-2.15-0.96-2.19-2.14c-0.04-1.18,0.85-2.2,2.03-2.3
								c74.67-6.61,115.93-63.07,137.39-109.27c23.4-50.35,29.06-99.82,29.11-100.32c0.11-0.99,0.87-1.79,1.85-1.95
								c1.53-0.25,37.7-6.03,56.59,10.84c7.9,7.05,11.57,17,10.93,29.56c-2.53,49.18-62.6,171.55-65.16,176.74
								C-421.05,675.14-421.82,675.62-422.67,675.62z M-566.62,669.12l142.57,2.03c6.49-13.34,61.74-128.08,64.09-173.74
								c0.57-11.15-2.6-19.9-9.45-26.01c-15.17-13.55-44.1-10.9-51.26-9.99c-1.23,9.25-8.03,54.2-29.23,99.87
								C-477.07,619.8-517.1,656.64-566.62,669.12z"/>
						</g>
						<path d="M-213.92,333.25c-28.45-6.7-40.32-6.79-143.75-3.04c-25.28,0.92-55.35,32.68-58.32,57.83
							c8.04,24.12,45.12,143.23-19.62,236.29c-9.19,13.2-21.67,27.68-38.82,41.57c9.63,7.8,24.6,17.95,44.7,23.92
							c33.37,9.92,50.15-0.8,77.04,0c71.14,2.12,97.22,81.44,143.17,71.48c12.27-2.66,28.53-12.24,43.77-44.38
							c8.64-26.65,16.33-57.94,20.61-93.3c11.61-95.86-7.38-175.68-24.35-225.77C-174.53,382.03-180.38,341.14-213.92,333.25z"/>
						<path d="M-441.95,481.69c0,0,16.73-134.27,64.93-145.73l-11.07,176.62L-441.95,481.69z"/>
						<g>
							<g>
								<path class="st1" d="M-196.96,445.85c22.02,9.33,47.88,20.33,70.65,30.11c0.01,0.29,0.01,0.56,0.02,0.85l-70.65-30.49
									L-196.96,445.85z"/>
								<path d="M-126.29,479.04c-0.3,0-0.6-0.06-0.88-0.18l-70.64-30.49c-0.78-0.34-1.3-1.09-1.34-1.94l-0.02-0.48
									c-0.04-0.77,0.32-1.5,0.95-1.93c0.63-0.44,1.44-0.52,2.14-0.22c26.9,11.4,51.33,21.81,70.66,30.12
									c0.8,0.34,1.32,1.12,1.35,1.99l0.02,0.86c0.01,0.76-0.36,1.47-0.99,1.89C-125.42,478.91-125.86,479.04-126.29,479.04z"/>
							</g>
						</g>
						<path d="M-113.96,506.3c0,0-4.71-79.76-11.6-110.58c-14.48-64.83-98.41-65.51-98.41-65.51l14.66,165.01L-113.96,506.3z"/>
						<g>
							<g>
								<path class="st1" d="M-296.22,319.21l-2.84-40.34c-1.93-0.13-3.26-0.22-3.65-0.22c-11.24-0.13-14.89-3.78-15.86-13.02
									c-0.61-5.78-0.82-14.37,2-25.11c0.3-1.15,0.23-2.37-0.23-3.46l-1.92-4.51c-0.4-1.48,0.11-3.07,1.3-4.04l1.02-0.84
									c3.67-3.01,6.71-6.71,9.16-10.82c2.25-3.78,6.07-10.86,8.69-12.12c7.39-3.53,37.35-19.23,54.11,8.2
									c13.06,21.38-8.28,50.82-16.04,60.46c-1.87,2.33,12.66,48.04,12.66,48.04l18.8,4.55c0,0-14.5,25.79-58.55,15.12
									c-31.37-7.59-26.39-19.28-26.39-19.28L-296.22,319.21z"/>
								<path d="M-267.27,345.95c-6.1,0-13.02-0.79-20.84-2.68c-14.88-3.6-24.04-8.65-27.22-14.99c-2-3.99-0.83-7-0.69-7.33
									c0.3-0.71,0.96-1.22,1.72-1.33l15.71-2.32l-2.56-36.35c-0.81-0.05-1.36-0.08-1.59-0.09c-12.02-0.14-16.92-4.21-18.05-15.01
									c-0.91-8.68-0.23-17.16,2.06-25.91c0.18-0.69,0.14-1.41-0.13-2.02l-1.92-4.51c-0.04-0.1-0.07-0.19-0.1-0.29
									c-0.63-2.33,0.17-4.82,2.03-6.35l1.02-0.84c3.33-2.73,6.24-6.18,8.66-10.24l1-1.71c3.27-5.61,5.98-10,8.64-11.28l0.79-0.38
									c25.83-12.49,44.73-9.32,56.18,9.43c13.28,21.75-6.41,50.75-15.89,62.63c-0.01,3.85,6.11,25.44,12.35,45.17l17.58,4.25
									c0.68,0.16,1.24,0.64,1.52,1.28c0.28,0.64,0.24,1.37-0.1,1.98C-227.61,328-238.11,345.95-267.27,345.95z M-312.03,323.79
									c0.02,0.66,0.2,1.59,0.79,2.69c1.52,2.84,6.69,8.22,24.18,12.46c33.63,8.14,49.32-5.67,54.27-11.57l-15.56-3.76
									c-0.76-0.18-1.36-0.75-1.6-1.49c-14.9-46.85-13.13-49.05-12.28-50.11c8.76-10.89,27.83-38.33,15.87-57.91
									c-15.15-24.81-41.71-11.96-50.44-7.74l-0.8,0.39c-1.64,0.79-5.07,6.67-6.72,9.5l-1.02,1.75c-2.68,4.5-5.93,8.34-9.66,11.4
									l-1.02,0.84c-0.47,0.39-0.7,1.03-0.59,1.62l1.85,4.33c0.65,1.52,0.77,3.25,0.34,4.89c-2.15,8.22-2.79,16.18-1.94,24.31
									c0.79,7.52,2.95,10.9,13.67,11.02c0.41,0.01,1.78,0.09,3.77,0.23c1.11,0.08,1.99,0.96,2.07,2.07l2.84,40.34
									c0.08,1.16-0.74,2.19-1.9,2.36L-312.03,323.79z"/>
							</g>
							<path d="M-253.69,178.06c-8.12-1.75-17.46-0.5-21.4-1.95c-6.36-2.34-6.53-9.96-15.33-12.11c-10.65-2.59-15.09,1.96-19.25,8.3
								c-0.69,1.06-1.3,2.24-1.8,3.58c-6.69,17.97,1.76,26.74,5.52,29.59c0,0,23.95,12.39,28.05,15.93
								c3.84,3.31,8.26,11.15,5.48,22.42c-0.36,1.45,0.27,2.96,1.5,3.71c1.44,0.87,3.31,0.46,4.29-0.98
								c3.11-4.52,9.92-13.26,14.76-11.19c6.08,2.6,4.19,20.85-9.23,22.96c-4.12,0.65-7.47,4.87-7.06,9.19
								c0.27,2.82,2.92,6.24,6.86,7.14c2.41,0.55,4.78-0.42,6.9-1.78c8.76-5.6,33.46-29.33,36.53-50.61
								C-214.17,196.63-242.88,180.39-253.69,178.06z"/>
							<path d="M-302.09,280.69c-1.19,0-2.18-0.94-2.22-2.14c-0.05-1.23,0.91-2.26,2.14-2.31c0.09,0,8.67-0.4,14.53-5.38
								c0.94-0.8,2.34-0.68,3.14,0.25c0.8,0.94,0.68,2.34-0.25,3.14c-7.05,6-16.83,6.42-17.24,6.44
								C-302.04,280.69-302.07,280.69-302.09,280.69z"/>
						</g>
					</g>
					<g>
						<g>
							<path class="st1" d="M-494.17,1090.14c-4.1-4.15-27.78-77.92-27.78-77.92l-46.8,33.43l51.31,69.04L-494.17,1090.14z"/>
							<path d="M-517.45,1116.92c-0.04,0-0.09,0-0.13,0c-0.66-0.04-1.26-0.37-1.66-0.9l-51.31-69.04c-0.36-0.48-0.5-1.08-0.41-1.67
								c0.09-0.59,0.42-1.12,0.91-1.47l46.8-33.43c0.58-0.41,1.32-0.53,1.99-0.3c0.68,0.22,1.2,0.76,1.42,1.43
								c8.98,27.98,24.33,73.63,27.27,77.05c0.74,0.87,0.8,2.25,0.01,3.08l-23.28,24.56
								C-516.25,1116.67-516.84,1116.92-517.45,1116.92z M-565.62,1046.15l48.38,65.09l20.29-21.41
								c-5.55-10.6-21.11-58.3-26.19-74.03L-565.62,1046.15z"/>
						</g>
						<g>
							<path d="M-578.52,1183.41l31.13-0.19c20.59-0.12,39.75-10.6,50.98-27.88l30.78-48.78c8.5-13.48,3.75-31.34-10.32-38.83
								c-12.85-6.83-26.3-13.49-29.46-13.19c-6.4,0.61-8.99,30.94-8.99,30.94l-27.73,1.07c0,0-13.7,57.03-25.75,63.51
								c-8.78,4.72-14.91,11.66-19.04,17.99C-591.24,1174.68-586.42,1183.46-578.52,1183.41z"/>
							<path class="st1" d="M-575.39,1173.47c-1.08,0-2.03-0.79-2.2-1.9c-0.18-1.22,0.65-2.35,1.87-2.53l42.58-6.42
								c8.92-1.35,16.7-6.56,21.33-14.32l37.62-62.92c0.63-1.06,2-1.4,3.05-0.77c1.06,0.63,1.4,2,0.77,3.05l-37.62,62.92
								c-5.32,8.9-14.25,14.89-24.49,16.43l-42.58,6.42C-575.17,1173.46-575.28,1173.47-575.39,1173.47z"/>
							<path class="st1" d="M-522.84,1126.15c-0.19,0-0.39-0.03-0.59-0.08l-23.72-6.47c-1.19-0.32-1.89-1.55-1.56-2.73
								s1.54-1.89,2.73-1.56l23.72,6.47c1.19,0.32,1.89,1.55,1.56,2.73C-520.96,1125.5-521.86,1126.15-522.84,1126.15z"/>
							<path class="st1" d="M-535.19,1138.35c-0.18,0-0.35-0.02-0.53-0.06l-15.9-3.9c-1.2-0.29-1.93-1.5-1.63-2.69
								c0.29-1.2,1.51-1.93,2.69-1.63l15.9,3.9c1.2,0.29,1.93,1.5,1.63,2.69C-533.28,1137.67-534.19,1138.35-535.19,1138.35z"/>
						</g>
						<g>
							<polygon class="st1" points="-653.87,1076.06 -708.21,1130.72 -737.02,1120.13 -686.93,1050.2 							"/>
							<path d="M-708.21,1132.95c-0.26,0-0.52-0.04-0.77-0.14l-28.81-10.59c-0.65-0.24-1.15-0.77-1.36-1.44
								c-0.2-0.66-0.09-1.39,0.32-1.95l50.09-69.93c0.35-0.49,0.89-0.82,1.49-0.91c0.6-0.09,1.21,0.08,1.69,0.45l33.05,25.86
								c0.5,0.39,0.81,0.98,0.85,1.62c0.04,0.64-0.19,1.26-0.64,1.71l-54.34,54.66C-707.06,1132.72-707.63,1132.95-708.21,1132.95z
								 M-733.5,1119.05l24.72,9.09l51.56-51.87l-29.25-22.88L-733.5,1119.05z"/>
						</g>
						<g>
							<path class="st1" d="M-366.24,672.55c0,0-248.34-30.48-322.19,36.92c-73.85,67.39,116.57,357.19,116.57,357.19l60.22-47.08
								l-57.12-204.83l229.56-68.73L-366.24,672.55z"/>
							<path d="M-571.86,1068.88c-0.12,0-0.24-0.01-0.36-0.03c-0.61-0.1-1.16-0.45-1.5-0.97c-7.82-11.9-190.6-292.17-116.21-360.06
								c73.76-67.31,313.78-38.73,323.96-37.48c0.83,0.1,1.53,0.66,1.82,1.44l27.05,73.47c0.21,0.58,0.18,1.22-0.1,1.77
								c-0.28,0.55-0.76,0.96-1.35,1.14l-227.47,68.1l56.53,202.73c0.24,0.87-0.06,1.8-0.77,2.35l-60.22,47.08
								C-570.88,1068.72-571.36,1068.88-571.86,1068.88z M-488.68,668.02c-73.54,0-160.08,8.26-198.24,43.09
								c-68.42,62.44,98.9,326.36,115.61,352.3l57.13-44.66l-56.72-203.4c-0.33-1.17,0.34-2.38,1.51-2.73l227.29-68.05l-25.76-69.96
								C-376.78,673.58-428.36,668.02-488.68,668.02z"/>
						</g>
						<g>
							<path class="st1" d="M-229.57,805.93c-36.07,12.07-100.62,27.67-190.83,26.38c-25.63-0.37-49.3,14.56-60.94,38.64
								c-26.72,55.25-84.56,154.72-178.77,219.19l-44.99-25.56l114.84-272.54c10.49-24.88,30.09-44.22,54.34-53.6l227.6-87.99
								c0,0,70.57-20.8,105.17,45.62c6.18,11.86,17.65-9.34,20.39,0.23C-173.4,729.13-198.59,795.56-229.57,805.93z"/>
							<path d="M-660.11,1092.37c-0.38,0-0.76-0.1-1.1-0.29l-44.99-25.56c-0.98-0.56-1.39-1.76-0.95-2.8l114.84-272.54
								c10.66-25.3,30.92-45.27,55.59-54.81l227.6-87.99c0.89-0.27,72.91-20.59,107.95,46.67c0.73,1.4,1.53,2.23,2.39,2.44
								c1.79,0.46,4.5-1.36,6.88-2.96c2.85-1.91,5.54-3.72,8.16-2.76c1.49,0.54,2.54,1.86,3.13,3.92
								c9.53,33.37-15.88,101.52-48.24,112.34l-0.71-2.11l0.71,2.11c-38.23,12.79-102.5,27.78-191.57,26.49
								c-0.31,0-0.61-0.01-0.92-0.01c-24.64,0-46.8,14.26-57.98,37.39c-26.25,54.27-84.47,155.02-179.51,220.06
								C-659.23,1092.23-659.67,1092.37-660.11,1092.37z M-702.28,1063.62l42.06,23.89c93.51-64.48,150.92-163.89,176.87-217.54
								c11.91-24.61,36.62-40.26,62.98-39.89c88.44,1.28,152.19-13.58,190.09-26.26c29.9-10.01,54.24-75.84,45.37-106.9
								c-0.23-0.8-0.45-1-0.45-1c-0.62-0.07-2.77,1.44-4.07,2.31c-3.16,2.12-6.74,4.52-10.47,3.58c-2.13-0.54-3.89-2.13-5.23-4.7
								c-33.33-63.98-99.76-45.34-102.57-44.51l-227.42,87.93c-23.55,9.1-42.9,28.2-53.09,52.38L-702.28,1063.62z"/>
						</g>
						<g>
							<path d="M-691.04,1122.17c0,0,2.63,23.25-1.83,43.8c-2.37,10.95-12.23,18.65-23.42,18.65h-133.36
								c-9.53,0-13.85-11.91-6.55-18.04c23.71-19.89,67.33-50.26,120.96-59.17l14.96,20.96L-691.04,1122.17z"/>
							<path class="st1" d="M-705.1,1168.5h-138.21c-1.23,0-2.23-1-2.23-2.23c0-1.23,1-2.23,2.23-2.23h138.21
								c1.23,0,2.23,1,2.23,2.23C-702.88,1167.5-703.87,1168.5-705.1,1168.5z"/>
							<path class="st1" d="M-766.19,1143.92c-0.88,0-1.71-0.52-2.06-1.38l-7.32-17.77c-0.47-1.14,0.07-2.44,1.21-2.91
								c1.13-0.47,2.44,0.07,2.91,1.21l7.32,17.77c0.47,1.14-0.07,2.44-1.21,2.91C-765.62,1143.86-765.91,1143.92-766.19,1143.92z"
								/>
							<path class="st1" d="M-790.25,1148.59c-0.94,0-1.81-0.59-2.12-1.53l-5.29-16.03c-0.38-1.17,0.25-2.43,1.42-2.81
								c1.17-0.39,2.43,0.25,2.81,1.42l5.29,16.03c0.39,1.17-0.25,2.43-1.42,2.81C-789.78,1148.55-790.02,1148.59-790.25,1148.59z"
								/>
						</g>
					</g>
				</g>
			</g>
			<g>
				<g>
					<path class="st1" d="M-184.58,490.85c-24.21,88.22-96.15,144.51-200.46,174.14l15.91,29.73
						c144.96-5.1,220.98-68.1,251.37-189.01L-184.58,490.85z"/>
					<path d="M-369.13,696.95c-0.82,0-1.58-0.45-1.96-1.18L-387,666.04c-0.32-0.59-0.35-1.3-0.09-1.92
						c0.26-0.62,0.79-1.09,1.44-1.27c109.07-30.99,176-89.05,198.92-172.59c0.31-1.15,1.47-1.84,2.63-1.58l66.82,14.87
						c0.59,0.13,1.1,0.49,1.41,1c0.32,0.51,0.41,1.13,0.26,1.71c-31.45,125.12-111.98,185.72-253.45,190.69
						C-369.08,696.95-369.1,696.95-369.13,696.95z M-381.77,666.37l13.95,26.08c137.49-5.21,216.15-64.06,247.34-185.06L-183,493.48
						C-206.69,576.85-273.54,635-381.77,666.37z"/>
				</g>
				<g>
					<path class="st1" d="M-360.28,662.55c-1.48-2.89-3.95-5.17-7-6.27c-2.18-0.78-4.33-1.82-6.38-2.91l-28.39-15.06
						c-5.32-2.6-12.92,3.47-18.44,5.28c-16.66,5.47-51.15,18.36-48.31,30.47c3.07,13.06,32.71,6.88,43.23,4.25
						c2.41-0.6,24.18,7.29,31.07,7.81c9.51,0.72,11.71-1.7,16.36-4.14c2.12-1.11,4.48-1.62,7.05-1.63c3.92-0.03,7.65-1.67,10.1-4.73
						l0.06-0.07c2.7-3.38,3.18-8.03,1.21-11.89L-360.28,662.55z"/>
					<path d="M-391.39,688.46c-1,0-2.09-0.04-3.28-0.13c-3.8-0.29-11.23-2.49-18.4-4.62c-4.86-1.45-10.93-3.28-12.16-3.21
						c-10.99,2.77-31.19,6.6-40.7,0.81c-2.67-1.63-4.36-3.89-5.03-6.74c-3.01-12.84,25.41-25.08,49.78-33.09
						c1.49-0.49,3.24-1.37,5.09-2.3c4.83-2.43,10.3-5.18,15.03-2.87l28.45,15.09c2.36,1.25,4.3,2.14,6.09,2.78
						c3.53,1.27,6.46,3.88,8.23,7.35l0.56,1.09c2.37,4.63,1.8,10.24-1.45,14.29c-2.87,3.58-7.18,5.61-11.88,5.64
						c-2.32,0.02-4.29,0.47-6.02,1.38c-0.71,0.37-1.36,0.75-2,1.11C-382.15,686.8-385.06,688.46-391.39,688.46z M-425.23,676.04
						c1.75,0,5.03,0.9,13.43,3.39c6.63,1.97,14.14,4.2,17.47,4.45c7.32,0.55,9.71-0.81,13.02-2.71c0.68-0.39,1.37-0.79,2.14-1.19
						c2.35-1.23,5.06-1.87,8.07-1.89c3.36-0.02,6.41-1.44,8.38-3.9c2.21-2.76,2.59-6.48,1.02-9.55l-0.56-1.09
						c-1.26-2.46-3.31-4.3-5.77-5.19c-2-0.72-4.12-1.68-6.67-3.04l-28.39-15.06c-2.67-1.31-7.1,0.92-11,2.88
						c-2,1-3.89,1.95-5.7,2.55c-30.56,10.04-48.51,20.71-46.83,27.84c0.39,1.66,1.37,2.95,3.01,3.95
						c5.85,3.57,19.87,3.06,37.51-1.36C-425.85,676.08-425.57,676.04-425.23,676.04z"/>
				</g>
			</g>
			<g>
				<path class="st1" d="M-1420.5,702.37h1115.27c20.78,0,36.93,13.67,34.57,29.27l-77.01,510.93h-55.61l48.21-479.52
					c0.85-8.45-8-15.66-19.21-15.66h-957.36c-16.78,0-30.01,10.79-28.74,23.43l47.73,474.75h-55.61l-78.33-521.12
					C-1448.35,712.67-1436.17,702.37-1420.5,702.37z"/>
				<path d="M-1312.65,1247.79h-55.61c-1.1,0-2.04-0.81-2.2-1.9l-78.33-521.12c-0.78-5.22,0.84-10.48,4.57-14.82
					c5.29-6.14,14.15-9.81,23.71-9.81h1115.27c12.47,0,24.01,4.77,30.89,12.76c4.81,5.59,6.9,12.36,5.89,19.07l-77.02,510.93
					c-0.16,1.09-1.1,1.89-2.2,1.89h-55.61c-0.63,0-1.23-0.27-1.65-0.73c-0.42-0.47-0.63-1.09-0.56-1.72l48.21-479.52
					c0.34-3.4-1.3-6-2.73-7.59c-3.18-3.52-8.52-5.62-14.27-5.62h-957.36c-8.91,0-17.19,3.28-22.16,8.77
					c-3.29,3.64-4.8,7.86-4.36,12.2l47.73,474.75c0.06,0.63-0.14,1.25-0.56,1.72C-1311.42,1247.52-1312.02,1247.79-1312.65,1247.79z
					 M-1366.34,1243.33h51.23l-47.48-472.3c-0.56-5.55,1.39-11.11,5.49-15.64c5.8-6.41,15.32-10.24,25.47-10.24h957.36
					c6.99,0,13.55,2.65,17.57,7.09c2.88,3.19,4.25,7.1,3.86,11.02l-47.96,477.07h51.23l76.73-509.03c0.83-5.48-0.86-10.84-4.86-15.5
					c-6.04-7.02-16.32-11.21-27.51-11.21H-1420.5c-8.28,0-15.88,3.09-20.34,8.26c-2.92,3.39-4.14,7.28-3.55,11.25L-1366.34,1243.33z
					"/>
			</g>
			<g>
				<g>
					<g>
						<path class="st1" d="M-494.79,686.01l-59.93-176.63c-3.59-5.54-9.85-8.89-16.58-8.89h-159.75c-7.25,0-11.91,7.04-9.55,13.26
							c0.94,2.47,1.96,4.91,2.78,7.43l54.17,165.16h0.02c0.17,9.66,8.03,17.43,17.72,17.43h294.8c9.79,0,17.73-7.95,17.73-17.75
							H-494.79z"/>
						<path d="M-371.12,705.99h-294.8c-10.66,0-19.52-8.58-19.93-19.2l-54.09-164.92c-0.57-1.74-1.26-3.51-1.93-5.22l-0.82-2.11
							c-1.38-3.61-0.86-7.71,1.38-10.95c2.33-3.38,6.07-5.32,10.26-5.32h159.75c7.53,0,14.42,3.7,18.45,9.91
							c0.1,0.15,0.18,0.32,0.24,0.5l59.42,175.12h139.81c1.23,0,2.23,1,2.23,2.23C-351.16,697.03-360.12,705.99-371.12,705.99z
							 M-681.63,685.39c0.13,0.28,0.21,0.58,0.21,0.91c0.15,8.41,7.1,15.25,15.49,15.25h294.8c7.79,0,14.27-5.79,15.35-13.3h-139.02
							c-0.95,0-1.8-0.61-2.11-1.51l-59.84-176.36c-3.22-4.8-8.65-7.65-14.57-7.65h-159.75c-2.7,0-5.1,1.24-6.59,3.4
							c-1.41,2.04-1.73,4.6-0.88,6.84l0.8,2.07c0.69,1.77,1.4,3.59,2.01,5.45L-681.63,685.39z"/>
					</g>
					<path d="M-613.53,591.02c2.25,7.48-1.19,15.14-7.69,17.1c-6.5,1.96-13.59-2.51-15.84-9.99c-2.25-7.48,1.19-15.14,7.69-17.1
						C-622.88,579.07-615.79,583.54-613.53,591.02z"/>
				</g>
			</g>
			<g>
				<g>
					<g>
						<path class="st1" d="M-1146.71,706.3h-294.79c-8.05,0-14.58-6.53-14.58-14.58v-2.81h323.95v2.81
							C-1132.13,699.78-1138.66,706.3-1146.71,706.3z"/>
						<path d="M-1146.71,708.53h-294.79c-9.27,0-16.81-7.54-16.81-16.81v-2.81c0-1.23,1-2.23,2.23-2.23h323.95
							c1.23,0,2.23,1,2.23,2.23v2.81C-1129.9,700.99-1137.44,708.53-1146.71,708.53z M-1453.85,691.14v0.59
							c0,6.81,5.54,12.35,12.35,12.35h294.79c6.81,0,12.35-5.54,12.35-12.35v-0.59H-1453.85z"/>
					</g>
					<g>
						<g>
							<path class="st1" d="M-1132.12,689.22h-185.36l58.89-173.36c3.52-5.42,9.66-8.71,16.26-8.71h156.69
								c7.11,0,11.69,6.9,9.37,12.99c-0.92,2.42-1.92,4.82-2.73,7.28L-1132.12,689.22z"/>
							<path d="M-1132.12,691.45h-185.36c-0.72,0-1.39-0.35-1.81-0.93c-0.42-0.58-0.53-1.33-0.3-2.01l58.89-173.36
								c0.06-0.17,0.14-0.34,0.24-0.5c3.96-6.09,10.74-9.73,18.13-9.73h156.7c4.12,0,7.8,1.91,10.1,5.24
								c2.2,3.19,2.7,7.22,1.35,10.77l-0.8,2.07c-0.65,1.67-1.33,3.4-1.89,5.11l-53.13,161.81
								C-1130.31,690.83-1131.16,691.45-1132.12,691.45z M-1314.38,687h180.64l52.63-160.27c0.6-1.82,1.3-3.61,1.97-5.34l0.79-2.04
								c0.83-2.18,0.51-4.67-0.85-6.66c-1.45-2.11-3.79-3.31-6.43-3.31h-156.7c-5.79,0-11.1,2.79-14.25,7.47L-1314.38,687z"/>
						</g>
						<path d="M-1200.91,595.85c-2.21,7.33,1.17,14.83,7.54,16.75c6.37,1.92,13.33-2.46,15.54-9.79c2.21-7.33-1.17-14.83-7.54-16.75
							C-1191.75,584.13-1198.7,588.52-1200.91,595.85z"/>
					</g>
				</g>
			</g>
			<g>
				<g>
					<path class="st1" d="M-113.87,1253.83h-303.54c-18.22,0-31.85-16.72-28.18-34.57l46.05-223.86
						c3.87-18.83,20.44-32.34,39.66-32.34h260.36L-113.87,1253.83z"/>
					<path d="M-113.87,1256.06h-303.54c-9.36,0-18.12-4.16-24.03-11.41c-5.91-7.25-8.22-16.67-6.34-25.83l46.05-223.86
						c4.07-19.77,21.66-34.11,41.84-34.11h260.36c0.61,0,1.19,0.25,1.61,0.69c0.42,0.44,0.64,1.04,0.61,1.65l-14.36,290.76
						C-111.71,1255.12-112.68,1256.06-113.87,1256.06z M-359.88,965.29c-18.08,0-33.84,12.85-37.48,30.56l-46.05,223.86
						c-1.61,7.85,0.36,15.91,5.43,22.12c5.06,6.21,12.56,9.77,20.58,9.77h301.42l14.14-286.31H-359.88z"/>
				</g>
				<g>
					<path class="st1" d="M-75.01,1253.83h-58.9c-18.22,0-31.85-16.72-28.18-34.57l50.72-246.57c1.15-5.61,6.09-9.63,11.81-9.63
						h15.15c6.28,0,11.51,4.82,12.02,11.08l20.75,254.34C-50.53,1242.13-61.31,1253.83-75.01,1253.83z"/>
					<path d="M-75.01,1256.06h-58.9c-9.36,0-18.11-4.16-24.03-11.41c-5.91-7.25-8.22-16.67-6.34-25.83l50.72-246.57
						c1.36-6.61,7.24-11.41,13.99-11.41h15.15c7.38,0,13.64,5.77,14.24,13.12l20.75,254.34c0.58,7.12-1.86,14.23-6.71,19.48
						C-60.98,1253.04-67.86,1256.06-75.01,1256.06z M-99.56,965.29c-4.64,0-8.7,3.3-9.63,7.85l-50.72,246.57
						c-1.61,7.85,0.36,15.91,5.43,22.12c5.06,6.21,12.56,9.77,20.57,9.77h58.9c6,0,11.53-2.43,15.6-6.84
						c4.06-4.41,6.03-10.13,5.54-16.1l-20.75-254.34c-0.41-5.06-4.72-9.03-9.8-9.03H-99.56z"/>
				</g>
				<path d="M-155.23,1082.8h-237.66c-1.23,0-2.23-1-2.23-2.23c0-1.23,1-2.23,2.23-2.23h237.66c6.04,0,11.23-4.1,12.62-9.98
					l20.95-88.44c0.28-1.2,1.48-1.94,2.68-1.65c1.2,0.28,1.94,1.48,1.65,2.68l-20.95,88.44
					C-140.14,1077.29-147.12,1082.8-155.23,1082.8z"/>
				<g>
					<path class="st1" d="M-246.96,1080.57l-6.66,26.85c-1.08,4.54-5.13,7.75-9.8,7.75h-47.07c-5.12,0-8.84-4.89-7.46-9.82
						l6.89-24.78H-246.96z"/>
					<path d="M-263.42,1117.41h-47.07c-3.14,0-6.04-1.44-7.94-3.94c-1.9-2.5-2.51-5.68-1.67-8.71l6.89-24.78
						c0.27-0.96,1.15-1.63,2.15-1.63h64.1c0.69,0,1.33,0.32,1.75,0.85c0.42,0.54,0.57,1.24,0.41,1.91l-6.66,26.85
						C-252.77,1113.51-257.69,1117.41-263.42,1117.41z M-309.36,1082.8l-6.44,23.15c-0.47,1.68-0.13,3.43,0.92,4.82
						c1.05,1.39,2.65,2.18,4.39,2.18h47.07c3.65,0,6.79-2.48,7.63-6.04l5.98-24.11H-309.36z"/>
				</g>
				<path d="M-176.92,1233.57H-429.4c-1.23,0-2.23-1-2.23-2.23s1-2.23,2.23-2.23h252.48c1.23,0,2.23,1,2.23,2.23
					S-175.69,1233.57-176.92,1233.57z"/>
				<g>
					<g>
						<path d="M-299.9,952.9h-19.71c-5.32,0-9.64,4.32-9.64,9.64h38.99C-290.26,957.22-294.58,952.9-299.9,952.9z"/>
						<path d="M-290.26,964.77h-38.99c-1.23,0-2.23-1-2.23-2.23c0-6.54,5.32-11.87,11.87-11.87h19.71c6.54,0,11.87,5.32,11.87,11.87
							C-288.04,963.77-289.03,964.77-290.26,964.77z M-326.68,960.32h33.85c-0.95-3-3.76-5.19-7.07-5.19h-19.71
							C-322.92,955.13-325.74,957.31-326.68,960.32z"/>
					</g>
					<g>
						<path d="M-141.95,952.9h-19.71c-5.32,0-9.64,4.32-9.64,9.64h38.99C-132.31,957.22-136.63,952.9-141.95,952.9z"/>
						<path d="M-132.31,964.77h-38.99c-1.23,0-2.23-1-2.23-2.23c0-6.54,5.32-11.87,11.87-11.87h19.71c6.54,0,11.87,5.32,11.87,11.87
							C-130.08,963.77-131.08,964.77-132.31,964.77z M-168.73,960.32h33.85c-0.95-3-3.76-5.19-7.07-5.19h-19.71
							C-164.97,955.13-167.79,957.31-168.73,960.32z"/>
					</g>
					<g>
						<path class="st1" d="M-147.1,952.38l3.18-18.86c2.25-13.38-6.77-24.22-20.15-24.22h-118.18c-13.38,0-26.05,10.85-28.3,24.22
							l-3.18,18.86h9.04l2.47-14.68c1.75-10.41,11.61-18.85,22.03-18.85h110.83c10.41,0,17.43,8.44,15.68,18.85l-2.47,14.68H-147.1z
							"/>
						<path d="M-147.1,954.61h-9.04c-0.66,0-1.28-0.29-1.7-0.79c-0.42-0.5-0.6-1.16-0.5-1.81l2.47-14.68
							c0.75-4.43-0.27-8.55-2.86-11.62c-2.53-2.99-6.3-4.64-10.62-4.64h-110.83c-9.36,0-18.25,7.62-19.83,17l-2.47,14.68
							c-0.18,1.07-1.11,1.86-2.2,1.86h-9.05c-0.66,0-1.28-0.29-1.7-0.79s-0.6-1.16-0.5-1.81l3.18-18.86
							c2.42-14.38,16.1-26.08,30.5-26.08h118.18c7.07,0,13.3,2.76,17.53,7.76c4.31,5.1,6.02,11.87,4.81,19.06l-3.18,18.86
							C-145.08,953.83-146.01,954.61-147.1,954.61z M-153.51,950.16h4.53l2.86-17.01c0.99-5.88-0.37-11.36-3.82-15.44
							c-3.37-3.99-8.39-6.19-14.13-6.19h-118.18c-12.32,0-24.03,10.03-26.1,22.37l-2.74,16.27h4.53l2.16-12.82
							c1.92-11.42,12.79-20.71,24.22-20.71h110.83c5.65,0,10.63,2.21,14.02,6.22c3.45,4.08,4.82,9.49,3.85,15.23L-153.51,950.16z"/>
					</g>
					<g>
						<path d="M-169.94,901.49h-103.81c-4.18,0-8.15,3.39-8.85,7.58l-1.53,9.07c-0.7,4.18,2.12,7.58,6.3,7.58h103.81
							c4.18,0,8.15-3.39,8.85-7.58l1.53-9.07C-162.93,904.88-165.75,901.49-169.94,901.49z"/>
						<path d="M-174.01,927.93h-103.81c-2.67,0-5.03-1.05-6.65-2.97c-1.64-1.94-2.3-4.5-1.84-7.2l1.53-9.07
							c0.89-5.29,5.74-9.43,11.05-9.43h103.81c2.67,0,5.03,1.05,6.65,2.97c1.64,1.94,2.3,4.5,1.84,7.2l-1.53,9.07
							C-163.86,923.79-168.71,927.93-174.01,927.93z M-273.75,903.71c-3.09,0-6.13,2.62-6.65,5.72l-1.53,9.07
							c-0.23,1.39,0.07,2.66,0.85,3.59c0.76,0.9,1.91,1.39,3.25,1.39h103.81c3.09,0,6.13-2.62,6.65-5.72l1.53-9.07
							c0.23-1.39-0.07-2.66-0.85-3.59c-0.76-0.9-1.91-1.39-3.25-1.39H-273.75z"/>
					</g>
				</g>
				<path d="M-134.47,1233.57c-0.77,0-1.53-0.4-1.94-1.12c-0.61-1.07-0.24-2.43,0.83-3.04l39.57-22.54V980.44
					c0-1.23,1-2.23,2.23-2.23c1.23,0,2.23,1,2.23,2.23v227.72c0,0.8-0.43,1.54-1.12,1.94l-40.69,23.18
					C-133.72,1233.47-134.09,1233.57-134.47,1233.57z"/>
			</g>
		</g>
	</g>
</g>
</svg>
